M48
;Layer_Color=9474304
;FILE_FORMAT=4:4
METRIC,LZ
;TYPE=PLATED
T01F00S00C0.2032
T02F00S00C0.2540
T03F00S00C0.3048
T04F00S00C0.3302
T05F00S00C0.3810
T06F00S00C1.0200
T07F00S00C1.2700
%
T01
X0004064Y-0002032
T02
X0006604Y-00091663
X00075025Y-00086582
X00083425Y-0008092
T03
X-001016Y-0006096
X-0006096
X-00051772Y-00040241
X-00006502Y-00047585
X00018428Y-00045777
X00028588Y-00044212
X00038873Y-00057199
X00017928Y-00072403
X00089545Y-00070539
X00097992Y-0008862
X00089275Y-00097235
X00080303Y-0010558
X00089772Y-00114633
X00098011Y-00119917
X00084749Y-00041747
X00085244Y-00023385
X0011176Y-000254
X00060601Y-00041185
X-0004572Y-0009144
X-0003556Y0004572
X-0007112Y000508
Y0007112
X0013208Y0004064
T04
X-00021213Y00011619
X00067818Y00010781
X001225Y00012705
X0004064Y0003048
X000254Y0005588
T05
X00001243Y-00020207
X0009652Y0001016
X0013208Y-0001524
X00091064Y0004915
X0006096Y0013208
X-0009652Y0008636
T06
X-0009652Y-000254
Y0
Y000254
T07
X-000254Y-0010668
X000254
Y0010668
X-000254
M30
