%TF.GenerationSoftware,Altium Limited,Altium Designer,25.8.1 (18)*%
G04 Layer_Color=32896*
%FSLAX45Y45*%
%MOMM*%
%TF.SameCoordinates,D209C50B-13B8-4165-AD63-5D07F8741E93*%
%TF.FilePolarity,Positive*%
%TF.FileFunction,Legend,Bot*%
%TF.Part,Single*%
G01*
G75*
%TA.AperFunction,NonConductor*%
%ADD45C,0.50800*%
%ADD46C,0.15240*%
%ADD47C,0.25000*%
%ADD48C,0.20000*%
%ADD49C,0.10000*%
%ADD50C,0.08000*%
%ADD51C,0.25400*%
%ADD52C,0.07620*%
G36*
X796284Y-64243D02*
X797318Y-65747D01*
X798539Y-67250D01*
X799667Y-68566D01*
X800795Y-69694D01*
X801641Y-70634D01*
X802017Y-70916D01*
X802299Y-71197D01*
X802393Y-71291D01*
X802487Y-71385D01*
X804460Y-72983D01*
X806434Y-74487D01*
X808313Y-75802D01*
X810193Y-76836D01*
X811791Y-77776D01*
X812448Y-78152D01*
X813012Y-78434D01*
X813482Y-78716D01*
X813858Y-78810D01*
X814046Y-78998D01*
X814140D01*
Y-86704D01*
X812730Y-86140D01*
X811321Y-85482D01*
X809911Y-84825D01*
X808595Y-84167D01*
X807468Y-83603D01*
X806528Y-83133D01*
X805964Y-82757D01*
X805870Y-82663D01*
X805776D01*
X804084Y-81629D01*
X802581Y-80595D01*
X801265Y-79656D01*
X800231Y-78810D01*
X799291Y-78152D01*
X798727Y-77588D01*
X798257Y-77212D01*
X798164Y-77118D01*
Y-127961D01*
X790175D01*
Y-62645D01*
X795344D01*
X796284Y-64243D01*
D02*
G37*
G36*
X859157Y-94317D02*
X884249Y-127961D01*
X873911D01*
X857465Y-105406D01*
X857089Y-104842D01*
X856619Y-104184D01*
X855585Y-102681D01*
X855115Y-101929D01*
X854739Y-101365D01*
X854458Y-100989D01*
X854364Y-100895D01*
X853424Y-102305D01*
X852578Y-103621D01*
X852202Y-104090D01*
X852014Y-104466D01*
X851826Y-104748D01*
X851732Y-104842D01*
X835286Y-127961D01*
X824666D01*
X849007Y-93941D01*
X826451Y-62927D01*
X835849D01*
X848819Y-80220D01*
X849946Y-81629D01*
X850886Y-82945D01*
X851826Y-84261D01*
X852578Y-85294D01*
X853236Y-86234D01*
X853706Y-86986D01*
X853988Y-87362D01*
X854082Y-87550D01*
X854739Y-86422D01*
X855491Y-85200D01*
X856337Y-83885D01*
X857183Y-82569D01*
X858029Y-81441D01*
X858593Y-80501D01*
X858875Y-80126D01*
X859063Y-79844D01*
X859251Y-79750D01*
Y-79656D01*
X871092Y-62927D01*
X881336D01*
X859157Y-94317D01*
D02*
G37*
G36*
X-90835Y488824D02*
X-89802Y487321D01*
X-88580Y485817D01*
X-87452Y484501D01*
X-86324Y483373D01*
X-85479Y482434D01*
X-85103Y482152D01*
X-84821Y481870D01*
X-84727Y481776D01*
X-84633Y481682D01*
X-82659Y480084D01*
X-80686Y478580D01*
X-78806Y477265D01*
X-76926Y476231D01*
X-75329Y475291D01*
X-74671Y474915D01*
X-74107Y474633D01*
X-73637Y474351D01*
X-73261Y474257D01*
X-73073Y474069D01*
X-72979D01*
Y466363D01*
X-74389Y466927D01*
X-75799Y467585D01*
X-77208Y468243D01*
X-78524Y468901D01*
X-79652Y469464D01*
X-80592Y469934D01*
X-81156Y470310D01*
X-81250Y470404D01*
X-81343D01*
X-83035Y471438D01*
X-84539Y472472D01*
X-85855Y473412D01*
X-86888Y474257D01*
X-87828Y474915D01*
X-88392Y475479D01*
X-88862Y475855D01*
X-88956Y475949D01*
Y425106D01*
X-96944D01*
Y490422D01*
X-91775D01*
X-90835Y488824D01*
D02*
G37*
G36*
X-4656Y452548D02*
Y450668D01*
X-4750Y448883D01*
X-4844Y447191D01*
X-5032Y445593D01*
X-5220Y444184D01*
X-5408Y442868D01*
X-5690Y441646D01*
X-5878Y440519D01*
X-6066Y439485D01*
X-6347Y438639D01*
X-6535Y437887D01*
X-6723Y437323D01*
X-6911Y436853D01*
X-7005Y436477D01*
X-7099Y436289D01*
Y436195D01*
X-8133Y434128D01*
X-9449Y432248D01*
X-10765Y430745D01*
X-12174Y429429D01*
X-13396Y428395D01*
X-14430Y427643D01*
X-14806Y427455D01*
X-15088Y427267D01*
X-15276Y427079D01*
X-15370D01*
X-17719Y426046D01*
X-20163Y425294D01*
X-22700Y424730D01*
X-25049Y424354D01*
X-26083Y424260D01*
X-27117Y424166D01*
X-28057Y424072D01*
X-28809D01*
X-29467Y423978D01*
X-30312D01*
X-33696Y424166D01*
X-35199Y424354D01*
X-36609Y424542D01*
X-38019Y424824D01*
X-39240Y425106D01*
X-40368Y425388D01*
X-41402Y425764D01*
X-42342Y426140D01*
X-43094Y426422D01*
X-43845Y426703D01*
X-44409Y426985D01*
X-44879Y427267D01*
X-45161Y427361D01*
X-45349Y427549D01*
X-45443D01*
X-47511Y428959D01*
X-49202Y430557D01*
X-50518Y432060D01*
X-51646Y433564D01*
X-52492Y434880D01*
X-53056Y435914D01*
X-53243Y436289D01*
X-53431Y436571D01*
X-53525Y436759D01*
Y436853D01*
X-53901Y437981D01*
X-54277Y439203D01*
X-54841Y441740D01*
X-55217Y444372D01*
X-55499Y446909D01*
X-55593Y448037D01*
X-55687Y449165D01*
Y450105D01*
X-55781Y450950D01*
Y451608D01*
Y452078D01*
Y452454D01*
Y452548D01*
Y490140D01*
X-47135D01*
Y452548D01*
Y450386D01*
X-46947Y448319D01*
X-46759Y446533D01*
X-46477Y444842D01*
X-46195Y443338D01*
X-45819Y441928D01*
X-45537Y440707D01*
X-45161Y439673D01*
X-44785Y438827D01*
X-44409Y437981D01*
X-44033Y437417D01*
X-43752Y436853D01*
X-43470Y436477D01*
X-43282Y436195D01*
X-43188Y436101D01*
X-43094Y436008D01*
X-42248Y435256D01*
X-41308Y434598D01*
X-39240Y433564D01*
X-37079Y432812D01*
X-34823Y432342D01*
X-32756Y431966D01*
X-31910Y431872D01*
X-31064D01*
X-30500Y431778D01*
X-29561D01*
X-27587Y431872D01*
X-25801Y432154D01*
X-24110Y432436D01*
X-22794Y432906D01*
X-21666Y433282D01*
X-20820Y433564D01*
X-20350Y433846D01*
X-20163Y433940D01*
X-18847Y434786D01*
X-17719Y435820D01*
X-16779Y436853D01*
X-16121Y437793D01*
X-15558Y438733D01*
X-15088Y439391D01*
X-14900Y439861D01*
X-14806Y440049D01*
X-14524Y440894D01*
X-14336Y441740D01*
X-13960Y443714D01*
X-13678Y445781D01*
X-13490Y447849D01*
X-13396Y449635D01*
Y450480D01*
X-13302Y451138D01*
Y451702D01*
Y452172D01*
Y452454D01*
Y452548D01*
Y490140D01*
X-4656D01*
Y452548D01*
D02*
G37*
G36*
X856454Y1090668D02*
X858991Y1090198D01*
X861153Y1089446D01*
X863032Y1088694D01*
X863878Y1088224D01*
X864536Y1087848D01*
X865194Y1087473D01*
X865664Y1087097D01*
X866040Y1086815D01*
X866322Y1086627D01*
X866510Y1086533D01*
X866604Y1086439D01*
X868389Y1084653D01*
X869799Y1082680D01*
X870927Y1080612D01*
X871866Y1078544D01*
X872430Y1076759D01*
X872712Y1076007D01*
X872900Y1075349D01*
X872994Y1074785D01*
X873088Y1074409D01*
X873182Y1074127D01*
Y1074033D01*
X865194Y1072624D01*
X864818Y1074691D01*
X864254Y1076477D01*
X863596Y1077981D01*
X862938Y1079202D01*
X862280Y1080142D01*
X861717Y1080800D01*
X861341Y1081270D01*
X861247Y1081364D01*
X860025Y1082304D01*
X858709Y1083055D01*
X857487Y1083525D01*
X856266Y1083901D01*
X855138Y1084089D01*
X854292Y1084277D01*
X853540D01*
X851849Y1084183D01*
X850345Y1083807D01*
X849029Y1083337D01*
X847902Y1082868D01*
X847056Y1082304D01*
X846398Y1081834D01*
X845928Y1081458D01*
X845834Y1081364D01*
X844800Y1080236D01*
X844048Y1079014D01*
X843578Y1077793D01*
X843203Y1076665D01*
X843015Y1075631D01*
X842827Y1074879D01*
Y1074315D01*
Y1074221D01*
Y1074127D01*
Y1073094D01*
X843015Y1072154D01*
X843484Y1070556D01*
X844142Y1069146D01*
X844894Y1067925D01*
X845646Y1067079D01*
X846304Y1066421D01*
X846774Y1066045D01*
X846868Y1065951D01*
X846962D01*
X848559Y1065105D01*
X850063Y1064447D01*
X851661Y1063978D01*
X853070Y1063696D01*
X854292Y1063508D01*
X855326Y1063320D01*
X856548D01*
X856924Y1063414D01*
X857394D01*
X858333Y1056365D01*
X857112Y1056647D01*
X855984Y1056835D01*
X855044Y1057023D01*
X854198Y1057117D01*
X853540Y1057211D01*
X852695D01*
X850721Y1057023D01*
X848935Y1056647D01*
X847338Y1056083D01*
X846022Y1055425D01*
X844988Y1054768D01*
X844236Y1054204D01*
X843766Y1053828D01*
X843578Y1053640D01*
X842357Y1052230D01*
X841417Y1050726D01*
X840759Y1049223D01*
X840383Y1047719D01*
X840101Y1046497D01*
X840007Y1045463D01*
X839913Y1045088D01*
Y1044806D01*
Y1044618D01*
Y1044524D01*
X840101Y1042456D01*
X840571Y1040577D01*
X841135Y1038979D01*
X841887Y1037569D01*
X842639Y1036441D01*
X843203Y1035596D01*
X843672Y1035032D01*
X843860Y1034844D01*
X845364Y1033528D01*
X846962Y1032588D01*
X848559Y1031930D01*
X850063Y1031460D01*
X851379Y1031179D01*
X852413Y1031085D01*
X852788Y1030991D01*
X853352D01*
X855044Y1031085D01*
X856642Y1031460D01*
X858051Y1031930D01*
X859179Y1032494D01*
X860119Y1032964D01*
X860871Y1033434D01*
X861247Y1033810D01*
X861435Y1033904D01*
X862562Y1035220D01*
X863502Y1036723D01*
X864348Y1038321D01*
X865006Y1040013D01*
X865476Y1041422D01*
X865664Y1042080D01*
X865758Y1042644D01*
X865852Y1043114D01*
X865946Y1043490D01*
X866040Y1043678D01*
Y1043772D01*
X874028Y1042738D01*
X873840Y1041234D01*
X873558Y1039825D01*
X872712Y1037193D01*
X871678Y1034938D01*
X871115Y1033998D01*
X870551Y1033058D01*
X869987Y1032212D01*
X869423Y1031554D01*
X868953Y1030897D01*
X868483Y1030427D01*
X868201Y1030051D01*
X867919Y1029769D01*
X867731Y1029581D01*
X867637Y1029487D01*
X866510Y1028641D01*
X865382Y1027795D01*
X864254Y1027137D01*
X863032Y1026574D01*
X860683Y1025634D01*
X858427Y1025070D01*
X857394Y1024882D01*
X856454Y1024694D01*
X855608Y1024600D01*
X854856Y1024506D01*
X854292Y1024412D01*
X853446D01*
X851661Y1024506D01*
X850063Y1024694D01*
X848465Y1024976D01*
X846962Y1025352D01*
X845552Y1025822D01*
X844330Y1026292D01*
X843109Y1026855D01*
X842075Y1027419D01*
X841041Y1027889D01*
X840195Y1028453D01*
X839443Y1028923D01*
X838879Y1029393D01*
X838410Y1029769D01*
X838034Y1030051D01*
X837846Y1030239D01*
X837752Y1030333D01*
X836624Y1031460D01*
X835684Y1032682D01*
X834838Y1033904D01*
X834086Y1035126D01*
X833523Y1036253D01*
X832959Y1037475D01*
X832207Y1039731D01*
X832019Y1040764D01*
X831831Y1041704D01*
X831643Y1042550D01*
X831549Y1043302D01*
X831455Y1043866D01*
Y1044336D01*
Y1044618D01*
Y1044712D01*
X831549Y1046967D01*
X831925Y1049035D01*
X832489Y1050820D01*
X833053Y1052324D01*
X833617Y1053546D01*
X834180Y1054486D01*
X834556Y1055049D01*
X834650Y1055237D01*
X835966Y1056647D01*
X837376Y1057869D01*
X838879Y1058809D01*
X840383Y1059560D01*
X841699Y1060124D01*
X842733Y1060500D01*
X843109Y1060594D01*
X843390Y1060688D01*
X843578Y1060782D01*
X843672D01*
X842075Y1061628D01*
X840759Y1062474D01*
X839631Y1063414D01*
X838691Y1064259D01*
X837940Y1065011D01*
X837376Y1065669D01*
X837094Y1066045D01*
X837000Y1066233D01*
X836248Y1067549D01*
X835684Y1068865D01*
X835214Y1070180D01*
X834932Y1071402D01*
X834744Y1072436D01*
X834650Y1073188D01*
Y1073751D01*
Y1073939D01*
X834744Y1075537D01*
X835026Y1077135D01*
X835402Y1078544D01*
X835872Y1079766D01*
X836342Y1080800D01*
X836718Y1081646D01*
X837000Y1082116D01*
X837094Y1082304D01*
X838034Y1083713D01*
X839161Y1084935D01*
X840289Y1085969D01*
X841417Y1086909D01*
X842357Y1087567D01*
X843203Y1088130D01*
X843766Y1088412D01*
X843860Y1088506D01*
X843954D01*
X845646Y1089258D01*
X847338Y1089822D01*
X849029Y1090292D01*
X850533Y1090574D01*
X851755Y1090762D01*
X852788Y1090856D01*
X855138D01*
X856454Y1090668D01*
D02*
G37*
G36*
X936337Y1025540D02*
X927691D01*
Y1054392D01*
X916601D01*
X915567Y1054298D01*
X914815D01*
X914157Y1054204D01*
X913688Y1054110D01*
X913312D01*
X913124Y1054016D01*
X913030D01*
X911526Y1053546D01*
X910868Y1053264D01*
X910304Y1052982D01*
X909740Y1052700D01*
X909364Y1052512D01*
X909176Y1052418D01*
X909083Y1052324D01*
X908331Y1051760D01*
X907579Y1051102D01*
X906169Y1049693D01*
X905511Y1049035D01*
X905041Y1048471D01*
X904759Y1048095D01*
X904665Y1048001D01*
X903726Y1046685D01*
X902692Y1045276D01*
X901658Y1043772D01*
X900624Y1042362D01*
X899778Y1041046D01*
X899121Y1040013D01*
X898839Y1039637D01*
X898651Y1039355D01*
X898463Y1039167D01*
Y1039073D01*
X889911Y1025540D01*
X879197D01*
X890380Y1043208D01*
X891696Y1045088D01*
X892918Y1046779D01*
X894140Y1048189D01*
X895173Y1049505D01*
X896113Y1050444D01*
X896865Y1051196D01*
X897335Y1051666D01*
X897523Y1051854D01*
X898275Y1052418D01*
X899121Y1053076D01*
X900812Y1054110D01*
X901564Y1054486D01*
X902128Y1054861D01*
X902504Y1055049D01*
X902692Y1055143D01*
X901000Y1055425D01*
X899403Y1055707D01*
X897993Y1056177D01*
X896583Y1056553D01*
X895361Y1057023D01*
X894234Y1057587D01*
X893200Y1058057D01*
X892260Y1058527D01*
X891508Y1059091D01*
X890756Y1059560D01*
X890193Y1059936D01*
X889723Y1060312D01*
X889347Y1060594D01*
X889065Y1060876D01*
X888971Y1060970D01*
X888877Y1061064D01*
X888125Y1062004D01*
X887373Y1062944D01*
X886245Y1064917D01*
X885494Y1066891D01*
X884930Y1068771D01*
X884554Y1070368D01*
X884460Y1071026D01*
Y1071684D01*
X884366Y1072154D01*
Y1072530D01*
Y1072718D01*
Y1072812D01*
X884460Y1074785D01*
X884742Y1076571D01*
X885212Y1078263D01*
X885681Y1079672D01*
X886245Y1080894D01*
X886621Y1081834D01*
X886997Y1082398D01*
X887091Y1082492D01*
Y1082586D01*
X888219Y1084089D01*
X889347Y1085405D01*
X890568Y1086533D01*
X891696Y1087379D01*
X892730Y1088036D01*
X893576Y1088412D01*
X894140Y1088694D01*
X894234Y1088788D01*
X894328D01*
X895173Y1089070D01*
X896207Y1089352D01*
X898275Y1089822D01*
X900530Y1090104D01*
X902598Y1090386D01*
X904571Y1090480D01*
X905417D01*
X906169Y1090574D01*
X936337D01*
Y1025540D01*
D02*
G37*
G36*
X-702917Y360405D02*
X-701319Y360311D01*
X-699815Y360030D01*
X-698406Y359748D01*
X-697090Y359372D01*
X-695868Y358996D01*
X-694740Y358526D01*
X-693707Y358056D01*
X-692767Y357586D01*
X-692015Y357116D01*
X-691357Y356740D01*
X-690793Y356364D01*
X-690323Y356082D01*
X-690041Y355800D01*
X-689853Y355706D01*
X-689759Y355612D01*
X-688820Y354673D01*
X-687974Y353639D01*
X-687128Y352511D01*
X-686470Y351383D01*
X-685342Y349128D01*
X-684590Y346872D01*
X-684309Y345839D01*
X-684027Y344805D01*
X-683839Y343959D01*
X-683651Y343207D01*
X-683557Y342549D01*
Y342079D01*
X-683463Y341797D01*
Y341703D01*
X-691639Y340858D01*
X-691827Y343019D01*
X-692203Y344899D01*
X-692767Y346590D01*
X-693425Y347906D01*
X-693988Y349034D01*
X-694552Y349786D01*
X-694928Y350256D01*
X-695116Y350444D01*
X-696526Y351571D01*
X-698030Y352417D01*
X-699627Y353075D01*
X-701037Y353451D01*
X-702353Y353733D01*
X-703480Y353827D01*
X-703856Y353921D01*
X-704420D01*
X-706394Y353827D01*
X-708179Y353451D01*
X-709683Y352887D01*
X-710999Y352323D01*
X-712033Y351665D01*
X-712690Y351195D01*
X-713160Y350819D01*
X-713348Y350632D01*
X-714476Y349316D01*
X-715322Y348000D01*
X-715980Y346684D01*
X-716356Y345369D01*
X-716638Y344335D01*
X-716732Y343395D01*
X-716826Y342831D01*
Y342737D01*
Y342643D01*
X-716638Y340952D01*
X-716262Y339166D01*
X-715604Y337568D01*
X-714946Y336065D01*
X-714194Y334843D01*
X-713536Y333809D01*
X-713348Y333433D01*
X-713160Y333151D01*
X-712972Y333057D01*
Y332963D01*
X-712221Y331929D01*
X-711281Y330896D01*
X-710247Y329768D01*
X-709119Y328640D01*
X-706770Y326385D01*
X-704420Y324129D01*
X-703198Y323095D01*
X-702165Y322156D01*
X-701131Y321310D01*
X-700285Y320558D01*
X-699627Y319994D01*
X-699063Y319524D01*
X-698687Y319242D01*
X-698593Y319148D01*
X-696244Y317175D01*
X-694082Y315295D01*
X-692297Y313603D01*
X-690887Y312194D01*
X-689665Y310972D01*
X-688820Y310126D01*
X-688350Y309562D01*
X-688162Y309468D01*
Y309374D01*
X-686846Y307777D01*
X-685812Y306273D01*
X-684872Y304769D01*
X-684121Y303454D01*
X-683557Y302326D01*
X-683181Y301480D01*
X-682993Y300916D01*
X-682899Y300822D01*
Y300728D01*
X-682523Y299694D01*
X-682335Y298755D01*
X-682147Y297815D01*
X-682053Y296969D01*
X-681959Y296217D01*
Y295653D01*
Y295277D01*
Y295183D01*
X-725096D01*
Y302890D01*
X-693049D01*
X-694176Y304487D01*
X-694740Y305145D01*
X-695210Y305803D01*
X-695680Y306367D01*
X-696056Y306743D01*
X-696338Y307025D01*
X-696432Y307119D01*
X-696902Y307589D01*
X-697466Y308059D01*
X-698781Y309280D01*
X-700285Y310690D01*
X-701883Y312100D01*
X-703386Y313321D01*
X-704044Y313885D01*
X-704608Y314449D01*
X-705078Y314825D01*
X-705454Y315107D01*
X-705642Y315295D01*
X-705736Y315389D01*
X-707240Y316705D01*
X-708743Y317926D01*
X-710059Y319148D01*
X-711281Y320182D01*
X-712409Y321216D01*
X-713348Y322156D01*
X-714288Y323001D01*
X-715040Y323753D01*
X-715792Y324505D01*
X-716356Y325069D01*
X-716826Y325539D01*
X-717295Y326009D01*
X-717765Y326573D01*
X-717953Y326761D01*
X-719269Y328358D01*
X-720397Y329768D01*
X-721337Y331178D01*
X-722088Y332305D01*
X-722652Y333339D01*
X-723028Y334091D01*
X-723216Y334561D01*
X-723310Y334749D01*
X-723874Y336159D01*
X-724250Y337568D01*
X-724626Y338884D01*
X-724814Y340012D01*
X-724908Y341046D01*
X-725002Y341797D01*
Y342267D01*
Y342455D01*
X-724908Y343865D01*
X-724720Y345181D01*
X-724532Y346496D01*
X-724156Y347624D01*
X-723216Y349880D01*
X-722276Y351665D01*
X-721713Y352511D01*
X-721243Y353169D01*
X-720773Y353827D01*
X-720303Y354297D01*
X-719927Y354673D01*
X-719739Y355049D01*
X-719551Y355143D01*
X-719457Y355237D01*
X-718423Y356176D01*
X-717295Y357022D01*
X-716074Y357680D01*
X-714852Y358244D01*
X-712409Y359184D01*
X-709965Y359842D01*
X-708931Y360030D01*
X-707897Y360217D01*
X-706958Y360311D01*
X-706206Y360405D01*
X-705548Y360499D01*
X-704608D01*
X-702917Y360405D01*
D02*
G37*
G36*
X-620872Y295183D02*
X-629518D01*
Y324035D01*
X-640608D01*
X-641642Y323941D01*
X-642393D01*
X-643051Y323847D01*
X-643521Y323753D01*
X-643897D01*
X-644085Y323659D01*
X-644179D01*
X-645683Y323189D01*
X-646341Y322907D01*
X-646904Y322625D01*
X-647468Y322344D01*
X-647844Y322156D01*
X-648032Y322062D01*
X-648126Y321968D01*
X-648878Y321404D01*
X-649630Y320746D01*
X-651040Y319336D01*
X-651697Y318678D01*
X-652167Y318114D01*
X-652449Y317739D01*
X-652543Y317645D01*
X-653483Y316329D01*
X-654517Y314919D01*
X-655551Y313415D01*
X-656584Y312006D01*
X-657430Y310690D01*
X-658088Y309656D01*
X-658370Y309280D01*
X-658558Y308998D01*
X-658746Y308810D01*
Y308716D01*
X-667298Y295183D01*
X-678012D01*
X-666828Y312852D01*
X-665513Y314731D01*
X-664291Y316423D01*
X-663069Y317832D01*
X-662035Y319148D01*
X-661095Y320088D01*
X-660344Y320840D01*
X-659874Y321310D01*
X-659686Y321498D01*
X-658934Y322062D01*
X-658088Y322719D01*
X-656396Y323753D01*
X-655645Y324129D01*
X-655081Y324505D01*
X-654705Y324693D01*
X-654517Y324787D01*
X-656208Y325069D01*
X-657806Y325351D01*
X-659216Y325821D01*
X-660626Y326197D01*
X-661847Y326667D01*
X-662975Y327230D01*
X-664009Y327700D01*
X-664949Y328170D01*
X-665700Y328734D01*
X-666452Y329204D01*
X-667016Y329580D01*
X-667486Y329956D01*
X-667862Y330238D01*
X-668144Y330520D01*
X-668238Y330614D01*
X-668332Y330708D01*
X-669084Y331648D01*
X-669836Y332587D01*
X-670963Y334561D01*
X-671715Y336535D01*
X-672279Y338414D01*
X-672655Y340012D01*
X-672749Y340670D01*
Y341327D01*
X-672843Y341797D01*
Y342173D01*
Y342361D01*
Y342455D01*
X-672749Y344429D01*
X-672467Y346214D01*
X-671997Y347906D01*
X-671527Y349316D01*
X-670963Y350538D01*
X-670587Y351477D01*
X-670212Y352041D01*
X-670118Y352135D01*
Y352229D01*
X-668990Y353733D01*
X-667862Y355049D01*
X-666640Y356176D01*
X-665513Y357022D01*
X-664479Y357680D01*
X-663633Y358056D01*
X-663069Y358338D01*
X-662975Y358432D01*
X-662881D01*
X-662035Y358714D01*
X-661001Y358996D01*
X-658934Y359466D01*
X-656678Y359748D01*
X-654611Y360030D01*
X-652637Y360123D01*
X-651791D01*
X-651040Y360217D01*
X-620872D01*
Y295183D01*
D02*
G37*
G36*
X269538Y1272533D02*
X270572Y1271029D01*
X271794Y1269526D01*
X272921Y1268210D01*
X274049Y1267082D01*
X274895Y1266143D01*
X275271Y1265861D01*
X275553Y1265579D01*
X275647Y1265485D01*
X275741Y1265391D01*
X277714Y1263793D01*
X279688Y1262289D01*
X281568Y1260974D01*
X283447Y1259940D01*
X285045Y1259000D01*
X285703Y1258624D01*
X286267Y1258342D01*
X286737Y1258060D01*
X287112Y1257966D01*
X287300Y1257778D01*
X287394D01*
Y1250072D01*
X285985Y1250636D01*
X284575Y1251294D01*
X283165Y1251952D01*
X281850Y1252609D01*
X280722Y1253173D01*
X279782Y1253643D01*
X279218Y1254019D01*
X279124Y1254113D01*
X279030D01*
X277339Y1255147D01*
X275835Y1256181D01*
X274519Y1257120D01*
X273485Y1257966D01*
X272546Y1258624D01*
X271982Y1259188D01*
X271512Y1259564D01*
X271418Y1259658D01*
Y1208815D01*
X263429D01*
Y1274131D01*
X268598D01*
X269538Y1272533D01*
D02*
G37*
G36*
X405997Y1208815D02*
X397351D01*
Y1238324D01*
X366807D01*
Y1246031D01*
X397351D01*
Y1266143D01*
X362015D01*
Y1273849D01*
X405997D01*
Y1208815D01*
D02*
G37*
G36*
X351207D02*
X326396D01*
X324141Y1208909D01*
X322167Y1209003D01*
X320381Y1209191D01*
X318878Y1209379D01*
X317656Y1209567D01*
X316716Y1209661D01*
X316152Y1209848D01*
X315964D01*
X314367Y1210318D01*
X313051Y1210788D01*
X311829Y1211352D01*
X310795Y1211916D01*
X309950Y1212292D01*
X309292Y1212668D01*
X308916Y1212950D01*
X308822Y1213044D01*
X307788Y1213890D01*
X306848Y1214923D01*
X306096Y1215957D01*
X305345Y1216897D01*
X304781Y1217837D01*
X304405Y1218495D01*
X304123Y1218965D01*
X304029Y1219153D01*
X303371Y1220656D01*
X302901Y1222160D01*
X302525Y1223570D01*
X302337Y1224885D01*
X302149Y1226013D01*
X302055Y1226953D01*
Y1227517D01*
Y1227611D01*
Y1227705D01*
X302149Y1229772D01*
X302525Y1231652D01*
X303089Y1233250D01*
X303653Y1234753D01*
X304217Y1235881D01*
X304781Y1236727D01*
X305157Y1237291D01*
X305251Y1237479D01*
X306566Y1238982D01*
X307976Y1240204D01*
X309574Y1241238D01*
X310983Y1242084D01*
X312299Y1242741D01*
X313427Y1243117D01*
X313803Y1243305D01*
X314085Y1243399D01*
X314273Y1243493D01*
X314367D01*
X312769Y1244433D01*
X311359Y1245373D01*
X310232Y1246407D01*
X309292Y1247347D01*
X308540Y1248098D01*
X307976Y1248850D01*
X307694Y1249226D01*
X307600Y1249414D01*
X306848Y1250824D01*
X306284Y1252139D01*
X305814Y1253455D01*
X305533Y1254677D01*
X305345Y1255711D01*
X305251Y1256557D01*
Y1257026D01*
Y1257214D01*
X305345Y1258812D01*
X305627Y1260410D01*
X306096Y1261819D01*
X306566Y1263135D01*
X307036Y1264263D01*
X307506Y1265015D01*
X307788Y1265579D01*
X307882Y1265767D01*
X308916Y1267176D01*
X310044Y1268492D01*
X311265Y1269526D01*
X312393Y1270372D01*
X313333Y1271029D01*
X314179Y1271499D01*
X314743Y1271781D01*
X314837Y1271875D01*
X314931D01*
X316716Y1272533D01*
X318690Y1273003D01*
X320663Y1273379D01*
X322543Y1273567D01*
X324235Y1273755D01*
X324986D01*
X325644Y1273849D01*
X351207D01*
Y1208815D01*
D02*
G37*
G36*
X858205Y1267791D02*
X859238Y1266288D01*
X860460Y1264784D01*
X861588Y1263468D01*
X862716Y1262341D01*
X863561Y1261401D01*
X863937Y1261119D01*
X864219Y1260837D01*
X864313Y1260743D01*
X864407Y1260649D01*
X866381Y1259051D01*
X868354Y1257548D01*
X870234Y1256232D01*
X872114Y1255198D01*
X873711Y1254258D01*
X874369Y1253882D01*
X874933Y1253600D01*
X875403Y1253319D01*
X875779Y1253225D01*
X875967Y1253037D01*
X876061D01*
Y1245330D01*
X874651Y1245894D01*
X873241Y1246552D01*
X871832Y1247210D01*
X870516Y1247868D01*
X869388Y1248432D01*
X868448Y1248901D01*
X867884Y1249277D01*
X867790Y1249371D01*
X867697D01*
X866005Y1250405D01*
X864501Y1251439D01*
X863185Y1252379D01*
X862152Y1253225D01*
X861212Y1253882D01*
X860648Y1254446D01*
X860178Y1254822D01*
X860084Y1254916D01*
Y1204073D01*
X852096D01*
Y1269389D01*
X857265D01*
X858205Y1267791D01*
D02*
G37*
G36*
X944478Y1204073D02*
X921077D01*
X918916Y1204167D01*
X916942Y1204261D01*
X915156Y1204449D01*
X913653Y1204637D01*
X912337Y1204825D01*
X911397Y1204919D01*
X911115Y1205013D01*
X910833Y1205107D01*
X910645D01*
X908954Y1205577D01*
X907450Y1206141D01*
X906134Y1206610D01*
X905007Y1207174D01*
X904067Y1207644D01*
X903409Y1208020D01*
X903033Y1208302D01*
X902845Y1208396D01*
X901623Y1209242D01*
X900590Y1210276D01*
X899556Y1211216D01*
X898710Y1212155D01*
X897958Y1213001D01*
X897394Y1213659D01*
X897018Y1214129D01*
X896924Y1214317D01*
X895984Y1215821D01*
X895045Y1217418D01*
X894293Y1218922D01*
X893729Y1220426D01*
X893165Y1221741D01*
X892789Y1222775D01*
X892695Y1223151D01*
X892601Y1223433D01*
X892507Y1223621D01*
Y1223715D01*
X891943Y1225970D01*
X891473Y1228226D01*
X891192Y1230387D01*
X890910Y1232455D01*
X890816Y1234241D01*
Y1234992D01*
X890722Y1235650D01*
Y1236120D01*
Y1236590D01*
Y1236778D01*
Y1236872D01*
X890816Y1240067D01*
X891098Y1242981D01*
X891567Y1245612D01*
X891755Y1246834D01*
X892037Y1247868D01*
X892319Y1248901D01*
X892507Y1249747D01*
X892695Y1250499D01*
X892977Y1251157D01*
X893071Y1251721D01*
X893259Y1252097D01*
X893353Y1252285D01*
Y1252379D01*
X894387Y1254822D01*
X895609Y1256984D01*
X896924Y1258863D01*
X898146Y1260461D01*
X899274Y1261777D01*
X900214Y1262717D01*
X900590Y1262998D01*
X900871Y1263280D01*
X900965Y1263374D01*
X901059Y1263468D01*
X902563Y1264690D01*
X904161Y1265630D01*
X905758Y1266476D01*
X907262Y1267134D01*
X908578Y1267604D01*
X909612Y1267885D01*
X909988Y1268073D01*
X910269D01*
X910457Y1268167D01*
X910551D01*
X912149Y1268449D01*
X914029Y1268731D01*
X915908Y1268919D01*
X917788Y1269013D01*
X919479Y1269107D01*
X944478D01*
Y1204073D01*
D02*
G37*
G36*
X378662Y869947D02*
X381669Y869477D01*
X384300Y868913D01*
X385522Y868537D01*
X386650Y868161D01*
X387684Y867785D01*
X388624Y867409D01*
X389375Y867127D01*
X390127Y866845D01*
X390597Y866563D01*
X390973Y866375D01*
X391255Y866281D01*
X391349Y866187D01*
X393886Y864590D01*
X396048Y862710D01*
X397928Y860831D01*
X399525Y858951D01*
X400747Y857259D01*
X401217Y856508D01*
X401593Y855850D01*
X401969Y855380D01*
X402157Y855004D01*
X402251Y854722D01*
X402345Y854628D01*
X403660Y851715D01*
X404600Y848707D01*
X405258Y845700D01*
X405728Y842974D01*
X405916Y841753D01*
X406010Y840531D01*
X406104Y839591D01*
Y838651D01*
X406198Y837993D01*
Y837430D01*
Y837054D01*
Y836960D01*
X406010Y833576D01*
X405634Y830287D01*
X405164Y827374D01*
X404788Y825964D01*
X404506Y824742D01*
X404224Y823615D01*
X403848Y822581D01*
X403566Y821641D01*
X403378Y820889D01*
X403096Y820325D01*
X403002Y819855D01*
X402815Y819573D01*
Y819479D01*
X401405Y816660D01*
X399807Y814123D01*
X398116Y811961D01*
X397270Y811115D01*
X396518Y810269D01*
X395766Y809518D01*
X395014Y808860D01*
X394356Y808296D01*
X393792Y807920D01*
X393417Y807544D01*
X393041Y807262D01*
X392853Y807168D01*
X392759Y807074D01*
X391443Y806322D01*
X390127Y805664D01*
X387308Y804631D01*
X384488Y803879D01*
X381763Y803409D01*
X380447Y803221D01*
X379320Y803033D01*
X378286Y802939D01*
X377440D01*
X376688Y802845D01*
X375654D01*
X373775Y802939D01*
X371989Y803127D01*
X370297Y803315D01*
X368700Y803691D01*
X367196Y804161D01*
X365786Y804631D01*
X364471Y805100D01*
X363249Y805664D01*
X362215Y806134D01*
X361181Y806604D01*
X360430Y807074D01*
X359678Y807544D01*
X359208Y807920D01*
X358738Y808108D01*
X358550Y808296D01*
X358456Y808390D01*
X357140Y809518D01*
X356012Y810645D01*
X354979Y811961D01*
X353945Y813277D01*
X352253Y815908D01*
X350938Y818540D01*
X350374Y819761D01*
X349904Y820889D01*
X349528Y821923D01*
X349246Y822769D01*
X348964Y823521D01*
X348776Y824084D01*
X348682Y824460D01*
Y824554D01*
X357328Y826716D01*
X357704Y825212D01*
X358174Y823803D01*
X358644Y822487D01*
X359114Y821265D01*
X359678Y820137D01*
X360242Y819197D01*
X360899Y818258D01*
X361463Y817412D01*
X361933Y816660D01*
X362497Y816096D01*
X362967Y815532D01*
X363343Y815062D01*
X363719Y814780D01*
X364001Y814498D01*
X364095Y814405D01*
X364189Y814311D01*
X365129Y813559D01*
X366162Y812995D01*
X368230Y811961D01*
X370203Y811209D01*
X372177Y810739D01*
X373869Y810363D01*
X374527Y810269D01*
X375184D01*
X375748Y810175D01*
X376406D01*
X378568Y810269D01*
X380635Y810645D01*
X382515Y811115D01*
X384206Y811679D01*
X385522Y812243D01*
X386086Y812525D01*
X386556Y812713D01*
X386932Y812901D01*
X387214Y813089D01*
X387402Y813183D01*
X387496D01*
X389281Y814498D01*
X390785Y815908D01*
X392101Y817506D01*
X393135Y819010D01*
X393980Y820325D01*
X394544Y821453D01*
X394732Y821923D01*
X394920Y822205D01*
X395014Y822393D01*
Y822487D01*
X395766Y824930D01*
X396330Y827374D01*
X396800Y829817D01*
X397082Y832073D01*
X397176Y833107D01*
X397270Y834046D01*
Y834892D01*
X397364Y835550D01*
Y836114D01*
Y836584D01*
Y836866D01*
Y836960D01*
X397270Y839403D01*
X397082Y841659D01*
X396706Y843726D01*
X396330Y845606D01*
X396048Y847204D01*
X395860Y847861D01*
X395672Y848425D01*
X395578Y848895D01*
X395484Y849177D01*
X395390Y849365D01*
Y849459D01*
X394450Y851621D01*
X393417Y853594D01*
X392289Y855192D01*
X391067Y856602D01*
X390033Y857729D01*
X389187Y858481D01*
X388530Y858951D01*
X388436Y859139D01*
X388342D01*
X386368Y860361D01*
X384206Y861301D01*
X382139Y861958D01*
X380165Y862334D01*
X378380Y862616D01*
X377628Y862710D01*
X376970D01*
X376500Y862804D01*
X375748D01*
X373399Y862710D01*
X371237Y862334D01*
X369452Y861770D01*
X367854Y861207D01*
X366632Y860549D01*
X365692Y860079D01*
X365129Y859703D01*
X364941Y859515D01*
X363437Y858105D01*
X362027Y856508D01*
X360899Y854816D01*
X359960Y853124D01*
X359208Y851621D01*
X358926Y850869D01*
X358738Y850305D01*
X358550Y849835D01*
X358362Y849459D01*
X358268Y849271D01*
Y849177D01*
X349810Y851151D01*
X350374Y852842D01*
X350938Y854346D01*
X351689Y855756D01*
X352347Y857165D01*
X353099Y858387D01*
X353945Y859515D01*
X354697Y860643D01*
X355449Y861582D01*
X356200Y862334D01*
X356858Y863086D01*
X357516Y863744D01*
X357986Y864214D01*
X358456Y864684D01*
X358832Y864966D01*
X359020Y865060D01*
X359114Y865154D01*
X360430Y866000D01*
X361745Y866845D01*
X363061Y867503D01*
X364471Y868067D01*
X367290Y868913D01*
X369828Y869477D01*
X371049Y869759D01*
X372083Y869853D01*
X373117Y869947D01*
X373963Y870041D01*
X374621Y870135D01*
X375560D01*
X378662Y869947D01*
D02*
G37*
G36*
X344077Y826904D02*
Y819573D01*
X315789D01*
Y803973D01*
X307801D01*
Y819573D01*
X298967D01*
Y826904D01*
X307801D01*
Y869007D01*
X314285D01*
X344077Y826904D01*
D02*
G37*
G36*
X752313Y460255D02*
X754850Y459785D01*
X757012Y459033D01*
X758891Y458281D01*
X759737Y457811D01*
X760395Y457435D01*
X761053Y457060D01*
X761523Y456684D01*
X761899Y456402D01*
X762181Y456214D01*
X762369Y456120D01*
X762463Y456026D01*
X764248Y454240D01*
X765658Y452267D01*
X766786Y450199D01*
X767725Y448131D01*
X768289Y446346D01*
X768571Y445594D01*
X768759Y444936D01*
X768853Y444372D01*
X768947Y443996D01*
X769041Y443714D01*
Y443620D01*
X761053Y442211D01*
X760677Y444278D01*
X760113Y446064D01*
X759455Y447568D01*
X758797Y448789D01*
X758139Y449729D01*
X757576Y450387D01*
X757200Y450857D01*
X757106Y450951D01*
X755884Y451891D01*
X754568Y452642D01*
X753346Y453112D01*
X752125Y453488D01*
X750997Y453676D01*
X750151Y453864D01*
X749399D01*
X747708Y453770D01*
X746204Y453394D01*
X744888Y452924D01*
X743761Y452455D01*
X742915Y451891D01*
X742257Y451421D01*
X741787Y451045D01*
X741693Y450951D01*
X740659Y449823D01*
X739907Y448601D01*
X739437Y447380D01*
X739062Y446252D01*
X738874Y445218D01*
X738686Y444466D01*
Y443902D01*
Y443808D01*
Y443714D01*
Y442681D01*
X738874Y441741D01*
X739343Y440143D01*
X740001Y438733D01*
X740753Y437512D01*
X741505Y436666D01*
X742163Y436008D01*
X742633Y435632D01*
X742727Y435538D01*
X742821D01*
X744418Y434692D01*
X745922Y434034D01*
X747520Y433565D01*
X748929Y433283D01*
X750151Y433095D01*
X751185Y432907D01*
X752407D01*
X752783Y433001D01*
X753252D01*
X754192Y425952D01*
X752971Y426234D01*
X751843Y426422D01*
X750903Y426610D01*
X750057Y426704D01*
X749399Y426798D01*
X748553D01*
X746580Y426610D01*
X744794Y426234D01*
X743197Y425670D01*
X741881Y425012D01*
X740847Y424354D01*
X740095Y423791D01*
X739625Y423415D01*
X739437Y423227D01*
X738216Y421817D01*
X737276Y420313D01*
X736618Y418810D01*
X736242Y417306D01*
X735960Y416084D01*
X735866Y415050D01*
X735772Y414675D01*
Y414393D01*
Y414205D01*
Y414111D01*
X735960Y412043D01*
X736430Y410164D01*
X736994Y408566D01*
X737746Y407156D01*
X738498Y406028D01*
X739062Y405183D01*
X739531Y404619D01*
X739719Y404431D01*
X741223Y403115D01*
X742821Y402175D01*
X744418Y401517D01*
X745922Y401047D01*
X747238Y400766D01*
X748272Y400672D01*
X748647Y400578D01*
X749211D01*
X750903Y400672D01*
X752501Y401047D01*
X753910Y401517D01*
X755038Y402081D01*
X755978Y402551D01*
X756730Y403021D01*
X757106Y403397D01*
X757294Y403491D01*
X758421Y404807D01*
X759361Y406310D01*
X760207Y407908D01*
X760865Y409600D01*
X761335Y411009D01*
X761523Y411667D01*
X761617Y412231D01*
X761711Y412701D01*
X761805Y413077D01*
X761899Y413265D01*
Y413359D01*
X769887Y412325D01*
X769699Y410821D01*
X769417Y409412D01*
X768571Y406780D01*
X767537Y404525D01*
X766974Y403585D01*
X766410Y402645D01*
X765846Y401799D01*
X765282Y401141D01*
X764812Y400484D01*
X764342Y400014D01*
X764060Y399638D01*
X763778Y399356D01*
X763590Y399168D01*
X763496Y399074D01*
X762369Y398228D01*
X761241Y397382D01*
X760113Y396724D01*
X758891Y396160D01*
X756542Y395221D01*
X754286Y394657D01*
X753252Y394469D01*
X752313Y394281D01*
X751467Y394187D01*
X750715Y394093D01*
X750151Y393999D01*
X749305D01*
X747520Y394093D01*
X745922Y394281D01*
X744324Y394563D01*
X742821Y394939D01*
X741411Y395409D01*
X740189Y395879D01*
X738968Y396442D01*
X737934Y397006D01*
X736900Y397476D01*
X736054Y398040D01*
X735302Y398510D01*
X734738Y398980D01*
X734269Y399356D01*
X733893Y399638D01*
X733705Y399826D01*
X733611Y399920D01*
X732483Y401047D01*
X731543Y402269D01*
X730697Y403491D01*
X729945Y404713D01*
X729382Y405840D01*
X728818Y407062D01*
X728066Y409318D01*
X727878Y410351D01*
X727690Y411291D01*
X727502Y412137D01*
X727408Y412889D01*
X727314Y413453D01*
Y413923D01*
Y414205D01*
Y414299D01*
X727408Y416554D01*
X727784Y418622D01*
X728348Y420407D01*
X728912Y421911D01*
X729476Y423133D01*
X730039Y424073D01*
X730415Y424636D01*
X730509Y424824D01*
X731825Y426234D01*
X733235Y427456D01*
X734738Y428396D01*
X736242Y429147D01*
X737558Y429711D01*
X738592Y430087D01*
X738968Y430181D01*
X739249Y430275D01*
X739437Y430369D01*
X739531D01*
X737934Y431215D01*
X736618Y432061D01*
X735490Y433001D01*
X734550Y433846D01*
X733799Y434598D01*
X733235Y435256D01*
X732953Y435632D01*
X732859Y435820D01*
X732107Y437136D01*
X731543Y438451D01*
X731073Y439767D01*
X730791Y440989D01*
X730603Y442023D01*
X730509Y442775D01*
Y443338D01*
Y443526D01*
X730603Y445124D01*
X730885Y446722D01*
X731261Y448131D01*
X731731Y449353D01*
X732201Y450387D01*
X732577Y451233D01*
X732859Y451703D01*
X732953Y451891D01*
X733893Y453300D01*
X735020Y454522D01*
X736148Y455556D01*
X737276Y456496D01*
X738216Y457154D01*
X739062Y457717D01*
X739625Y457999D01*
X739719Y458093D01*
X739813D01*
X741505Y458845D01*
X743197Y459409D01*
X744888Y459879D01*
X746392Y460161D01*
X747614Y460349D01*
X748647Y460443D01*
X750997D01*
X752313Y460255D01*
D02*
G37*
G36*
X807291Y461101D02*
X810298Y460631D01*
X812930Y460067D01*
X814152Y459691D01*
X815279Y459315D01*
X816313Y458939D01*
X817253Y458563D01*
X818005Y458281D01*
X818757Y457999D01*
X819226Y457717D01*
X819602Y457529D01*
X819884Y457435D01*
X819978Y457341D01*
X822516Y455744D01*
X824677Y453864D01*
X826557Y451985D01*
X828155Y450105D01*
X829376Y448413D01*
X829846Y447662D01*
X830222Y447004D01*
X830598Y446534D01*
X830786Y446158D01*
X830880Y445876D01*
X830974Y445782D01*
X832290Y442869D01*
X833229Y439861D01*
X833887Y436854D01*
X834357Y434128D01*
X834545Y432907D01*
X834639Y431685D01*
X834733Y430745D01*
Y429805D01*
X834827Y429147D01*
Y428584D01*
Y428208D01*
Y428114D01*
X834639Y424730D01*
X834263Y421441D01*
X833793Y418528D01*
X833417Y417118D01*
X833135Y415896D01*
X832854Y414769D01*
X832478Y413735D01*
X832196Y412795D01*
X832008Y412043D01*
X831726Y411479D01*
X831632Y411009D01*
X831444Y410727D01*
Y410633D01*
X830034Y407814D01*
X828436Y405277D01*
X826745Y403115D01*
X825899Y402269D01*
X825147Y401423D01*
X824395Y400672D01*
X823644Y400014D01*
X822986Y399450D01*
X822422Y399074D01*
X822046Y398698D01*
X821670Y398416D01*
X821482Y398322D01*
X821388Y398228D01*
X820072Y397476D01*
X818757Y396818D01*
X815937Y395785D01*
X813118Y395033D01*
X810392Y394563D01*
X809077Y394375D01*
X807949Y394187D01*
X806915Y394093D01*
X806069D01*
X805317Y393999D01*
X804284D01*
X802404Y394093D01*
X800618Y394281D01*
X798927Y394469D01*
X797329Y394845D01*
X795825Y395315D01*
X794416Y395785D01*
X793100Y396254D01*
X791878Y396818D01*
X790844Y397288D01*
X789811Y397758D01*
X789059Y398228D01*
X788307Y398698D01*
X787837Y399074D01*
X787367Y399262D01*
X787179Y399450D01*
X787085Y399544D01*
X785770Y400672D01*
X784642Y401799D01*
X783608Y403115D01*
X782574Y404431D01*
X780883Y407062D01*
X779567Y409694D01*
X779003Y410915D01*
X778533Y412043D01*
X778157Y413077D01*
X777875Y413923D01*
X777593Y414675D01*
X777405Y415238D01*
X777311Y415614D01*
Y415708D01*
X785958Y417870D01*
X786333Y416366D01*
X786803Y414956D01*
X787273Y413641D01*
X787743Y412419D01*
X788307Y411291D01*
X788871Y410351D01*
X789529Y409412D01*
X790093Y408566D01*
X790563Y407814D01*
X791126Y407250D01*
X791596Y406686D01*
X791972Y406216D01*
X792348Y405934D01*
X792630Y405652D01*
X792724Y405558D01*
X792818Y405465D01*
X793758Y404713D01*
X794792Y404149D01*
X796859Y403115D01*
X798833Y402363D01*
X800806Y401893D01*
X802498Y401517D01*
X803156Y401423D01*
X803814D01*
X804378Y401329D01*
X805035D01*
X807197Y401423D01*
X809265Y401799D01*
X811144Y402269D01*
X812836Y402833D01*
X814152Y403397D01*
X814715Y403679D01*
X815185Y403867D01*
X815561Y404055D01*
X815843Y404243D01*
X816031Y404337D01*
X816125D01*
X817911Y405652D01*
X819414Y407062D01*
X820730Y408660D01*
X821764Y410164D01*
X822610Y411479D01*
X823174Y412607D01*
X823362Y413077D01*
X823550Y413359D01*
X823644Y413547D01*
Y413641D01*
X824395Y416084D01*
X824959Y418528D01*
X825429Y420971D01*
X825711Y423227D01*
X825805Y424261D01*
X825899Y425200D01*
Y426046D01*
X825993Y426704D01*
Y427268D01*
Y427738D01*
Y428020D01*
Y428114D01*
X825899Y430557D01*
X825711Y432813D01*
X825335Y434880D01*
X824959Y436760D01*
X824677Y438358D01*
X824489Y439015D01*
X824301Y439579D01*
X824207Y440049D01*
X824113Y440331D01*
X824019Y440519D01*
Y440613D01*
X823080Y442775D01*
X822046Y444748D01*
X820918Y446346D01*
X819696Y447756D01*
X818663Y448883D01*
X817817Y449635D01*
X817159Y450105D01*
X817065Y450293D01*
X816971D01*
X814997Y451515D01*
X812836Y452455D01*
X810768Y453112D01*
X808795Y453488D01*
X807009Y453770D01*
X806257Y453864D01*
X805599D01*
X805129Y453958D01*
X804378D01*
X802028Y453864D01*
X799867Y453488D01*
X798081Y452924D01*
X796483Y452361D01*
X795262Y451703D01*
X794322Y451233D01*
X793758Y450857D01*
X793570Y450669D01*
X792066Y449259D01*
X790657Y447662D01*
X789529Y445970D01*
X788589Y444278D01*
X787837Y442775D01*
X787555Y442023D01*
X787367Y441459D01*
X787179Y440989D01*
X786991Y440613D01*
X786897Y440425D01*
Y440331D01*
X778439Y442305D01*
X779003Y443996D01*
X779567Y445500D01*
X780319Y446910D01*
X780977Y448319D01*
X781728Y449541D01*
X782574Y450669D01*
X783326Y451797D01*
X784078Y452736D01*
X784830Y453488D01*
X785488Y454240D01*
X786145Y454898D01*
X786615Y455368D01*
X787085Y455838D01*
X787461Y456120D01*
X787649Y456214D01*
X787743Y456308D01*
X789059Y457154D01*
X790375Y457999D01*
X791690Y458657D01*
X793100Y459221D01*
X795919Y460067D01*
X798457Y460631D01*
X799679Y460913D01*
X800712Y461007D01*
X801746Y461101D01*
X802592Y461195D01*
X803250Y461289D01*
X804190D01*
X807291Y461101D01*
D02*
G37*
G36*
X321478Y660678D02*
X323076Y660584D01*
X324579Y660302D01*
X325989Y660020D01*
X327305Y659644D01*
X328526Y659268D01*
X329654Y658798D01*
X330688Y658328D01*
X331628Y657858D01*
X332380Y657388D01*
X333037Y657012D01*
X333601Y656636D01*
X334071Y656355D01*
X334353Y656073D01*
X334541Y655979D01*
X334635Y655885D01*
X335575Y654945D01*
X336421Y653911D01*
X337267Y652783D01*
X337924Y651656D01*
X339052Y649400D01*
X339804Y647145D01*
X340086Y646111D01*
X340368Y645077D01*
X340556Y644231D01*
X340744Y643479D01*
X340838Y642821D01*
Y642352D01*
X340932Y642070D01*
Y641976D01*
X332755Y641130D01*
X332568Y643291D01*
X332192Y645171D01*
X331628Y646863D01*
X330970Y648178D01*
X330406Y649306D01*
X329842Y650058D01*
X329466Y650528D01*
X329278Y650716D01*
X327869Y651844D01*
X326365Y652689D01*
X324767Y653347D01*
X323357Y653723D01*
X322042Y654005D01*
X320914Y654099D01*
X320538Y654193D01*
X319974D01*
X318001Y654099D01*
X316215Y653723D01*
X314711Y653159D01*
X313396Y652595D01*
X312362Y651937D01*
X311704Y651468D01*
X311234Y651092D01*
X311046Y650904D01*
X309918Y649588D01*
X309073Y648272D01*
X308415Y646957D01*
X308039Y645641D01*
X307757Y644607D01*
X307663Y643667D01*
X307569Y643103D01*
Y643009D01*
Y642915D01*
X307757Y641224D01*
X308133Y639438D01*
X308791Y637840D01*
X309448Y636337D01*
X310200Y635115D01*
X310858Y634081D01*
X311046Y633705D01*
X311234Y633423D01*
X311422Y633329D01*
Y633235D01*
X312174Y632202D01*
X313114Y631168D01*
X314147Y630040D01*
X315275Y628912D01*
X317625Y626657D01*
X319974Y624401D01*
X321196Y623368D01*
X322230Y622428D01*
X323264Y621582D01*
X324109Y620830D01*
X324767Y620266D01*
X325331Y619796D01*
X325707Y619514D01*
X325801Y619420D01*
X328150Y617447D01*
X330312Y615567D01*
X332098Y613876D01*
X333507Y612466D01*
X334729Y611244D01*
X335575Y610398D01*
X336045Y609834D01*
X336233Y609740D01*
Y609646D01*
X337548Y608049D01*
X338582Y606545D01*
X339522Y605041D01*
X340274Y603726D01*
X340838Y602598D01*
X341214Y601752D01*
X341402Y601188D01*
X341496Y601094D01*
Y601000D01*
X341872Y599967D01*
X342060Y599027D01*
X342247Y598087D01*
X342341Y597241D01*
X342435Y596489D01*
Y595925D01*
Y595549D01*
Y595456D01*
X299299D01*
Y603162D01*
X331346D01*
X330218Y604760D01*
X329654Y605417D01*
X329184Y606075D01*
X328714Y606639D01*
X328338Y607015D01*
X328056Y607297D01*
X327963Y607391D01*
X327493Y607861D01*
X326929Y608331D01*
X325613Y609553D01*
X324109Y610962D01*
X322512Y612372D01*
X321008Y613594D01*
X320350Y614158D01*
X319786Y614721D01*
X319316Y615097D01*
X318940Y615379D01*
X318752Y615567D01*
X318658Y615661D01*
X317155Y616977D01*
X315651Y618199D01*
X314335Y619420D01*
X313114Y620454D01*
X311986Y621488D01*
X311046Y622428D01*
X310106Y623274D01*
X309354Y624025D01*
X308603Y624777D01*
X308039Y625341D01*
X307569Y625811D01*
X307099Y626281D01*
X306629Y626845D01*
X306441Y627033D01*
X305125Y628630D01*
X303998Y630040D01*
X303058Y631450D01*
X302306Y632578D01*
X301742Y633611D01*
X301366Y634363D01*
X301178Y634833D01*
X301084Y635021D01*
X300520Y636431D01*
X300144Y637840D01*
X299769Y639156D01*
X299581Y640284D01*
X299487Y641318D01*
X299393Y642070D01*
Y642539D01*
Y642727D01*
X299487Y644137D01*
X299675Y645453D01*
X299862Y646769D01*
X300238Y647896D01*
X301178Y650152D01*
X302118Y651937D01*
X302682Y652783D01*
X303152Y653441D01*
X303622Y654099D01*
X304092Y654569D01*
X304468Y654945D01*
X304655Y655321D01*
X304843Y655415D01*
X304937Y655509D01*
X305971Y656449D01*
X307099Y657294D01*
X308321Y657952D01*
X309542Y658516D01*
X311986Y659456D01*
X314429Y660114D01*
X315463Y660302D01*
X316497Y660490D01*
X317437Y660584D01*
X318189Y660678D01*
X318846Y660772D01*
X319786D01*
X321478Y660678D01*
D02*
G37*
G36*
X378618Y661429D02*
X381625Y660960D01*
X384257Y660396D01*
X385478Y660020D01*
X386606Y659644D01*
X387640Y659268D01*
X388580Y658892D01*
X389331Y658610D01*
X390083Y658328D01*
X390553Y658046D01*
X390929Y657858D01*
X391211Y657764D01*
X391305Y657670D01*
X393842Y656073D01*
X396004Y654193D01*
X397884Y652313D01*
X399481Y650434D01*
X400703Y648742D01*
X401173Y647990D01*
X401549Y647332D01*
X401925Y646863D01*
X402113Y646487D01*
X402207Y646205D01*
X402301Y646111D01*
X403616Y643197D01*
X404556Y640190D01*
X405214Y637183D01*
X405684Y634457D01*
X405872Y633235D01*
X405966Y632014D01*
X406060Y631074D01*
Y630134D01*
X406154Y629476D01*
Y628912D01*
Y628536D01*
Y628442D01*
X405966Y625059D01*
X405590Y621770D01*
X405120Y618857D01*
X404744Y617447D01*
X404462Y616225D01*
X404180Y615097D01*
X403804Y614064D01*
X403522Y613124D01*
X403334Y612372D01*
X403053Y611808D01*
X402959Y611338D01*
X402771Y611056D01*
Y610962D01*
X401361Y608143D01*
X399763Y605605D01*
X398072Y603444D01*
X397226Y602598D01*
X396474Y601752D01*
X395722Y601000D01*
X394970Y600342D01*
X394312Y599779D01*
X393749Y599403D01*
X393373Y599027D01*
X392997Y598745D01*
X392809Y598651D01*
X392715Y598557D01*
X391399Y597805D01*
X390083Y597147D01*
X387264Y596113D01*
X384444Y595362D01*
X381719Y594892D01*
X380403Y594704D01*
X379276Y594516D01*
X378242Y594422D01*
X377396D01*
X376644Y594328D01*
X375610D01*
X373731Y594422D01*
X371945Y594610D01*
X370254Y594798D01*
X368656Y595174D01*
X367152Y595643D01*
X365742Y596113D01*
X364427Y596583D01*
X363205Y597147D01*
X362171Y597617D01*
X361137Y598087D01*
X360386Y598557D01*
X359634Y599027D01*
X359164Y599403D01*
X358694Y599591D01*
X358506Y599779D01*
X358412Y599873D01*
X357096Y601000D01*
X355969Y602128D01*
X354935Y603444D01*
X353901Y604760D01*
X352209Y607391D01*
X350894Y610022D01*
X350330Y611244D01*
X349860Y612372D01*
X349484Y613406D01*
X349202Y614252D01*
X348920Y615003D01*
X348732Y615567D01*
X348638Y615943D01*
Y616037D01*
X357284Y618199D01*
X357660Y616695D01*
X358130Y615285D01*
X358600Y613970D01*
X359070Y612748D01*
X359634Y611620D01*
X360198Y610680D01*
X360856Y609740D01*
X361419Y608895D01*
X361889Y608143D01*
X362453Y607579D01*
X362923Y607015D01*
X363299Y606545D01*
X363675Y606263D01*
X363957Y605981D01*
X364051Y605887D01*
X364145Y605793D01*
X365085Y605041D01*
X366118Y604478D01*
X368186Y603444D01*
X370160Y602692D01*
X372133Y602222D01*
X373825Y601846D01*
X374483Y601752D01*
X375140D01*
X375704Y601658D01*
X376362D01*
X378524Y601752D01*
X380591Y602128D01*
X382471Y602598D01*
X384163Y603162D01*
X385478Y603726D01*
X386042Y604008D01*
X386512Y604196D01*
X386888Y604384D01*
X387170Y604572D01*
X387358Y604666D01*
X387452D01*
X389237Y605981D01*
X390741Y607391D01*
X392057Y608989D01*
X393091Y610492D01*
X393936Y611808D01*
X394500Y612936D01*
X394688Y613406D01*
X394876Y613688D01*
X394970Y613876D01*
Y613970D01*
X395722Y616413D01*
X396286Y618857D01*
X396756Y621300D01*
X397038Y623556D01*
X397132Y624589D01*
X397226Y625529D01*
Y626375D01*
X397320Y627033D01*
Y627597D01*
Y628067D01*
Y628349D01*
Y628442D01*
X397226Y630886D01*
X397038Y633141D01*
X396662Y635209D01*
X396286Y637089D01*
X396004Y638686D01*
X395816Y639344D01*
X395628Y639908D01*
X395534Y640378D01*
X395440Y640660D01*
X395346Y640848D01*
Y640942D01*
X394406Y643103D01*
X393373Y645077D01*
X392245Y646675D01*
X391023Y648084D01*
X389989Y649212D01*
X389143Y649964D01*
X388486Y650434D01*
X388392Y650622D01*
X388298D01*
X386324Y651844D01*
X384163Y652783D01*
X382095Y653441D01*
X380121Y653817D01*
X378336Y654099D01*
X377584Y654193D01*
X376926D01*
X376456Y654287D01*
X375704D01*
X373355Y654193D01*
X371193Y653817D01*
X369408Y653253D01*
X367810Y652689D01*
X366588Y652031D01*
X365648Y651562D01*
X365085Y651186D01*
X364897Y650998D01*
X363393Y649588D01*
X361983Y647990D01*
X360856Y646299D01*
X359916Y644607D01*
X359164Y643103D01*
X358882Y642352D01*
X358694Y641788D01*
X358506Y641318D01*
X358318Y640942D01*
X358224Y640754D01*
Y640660D01*
X349766Y642633D01*
X350330Y644325D01*
X350894Y645829D01*
X351645Y647238D01*
X352303Y648648D01*
X353055Y649870D01*
X353901Y650998D01*
X354653Y652125D01*
X355405Y653065D01*
X356157Y653817D01*
X356814Y654569D01*
X357472Y655227D01*
X357942Y655697D01*
X358412Y656167D01*
X358788Y656449D01*
X358976Y656543D01*
X359070Y656636D01*
X360386Y657482D01*
X361701Y658328D01*
X363017Y658986D01*
X364427Y659550D01*
X367246Y660396D01*
X369784Y660960D01*
X371005Y661242D01*
X372039Y661335D01*
X373073Y661429D01*
X373919Y661523D01*
X374577Y661617D01*
X375516D01*
X378618Y661429D01*
D02*
G37*
G36*
X729948Y287833D02*
X730982Y286329D01*
X732203Y284826D01*
X733331Y283510D01*
X734459Y282382D01*
X735305Y281442D01*
X735681Y281160D01*
X735962Y280879D01*
X736056Y280785D01*
X736150Y280691D01*
X738124Y279093D01*
X740098Y277589D01*
X741977Y276274D01*
X743857Y275240D01*
X745454Y274300D01*
X746112Y273924D01*
X746676Y273642D01*
X747146Y273360D01*
X747522Y273266D01*
X747710Y273078D01*
X747804D01*
Y265372D01*
X746394Y265936D01*
X744985Y266594D01*
X743575Y267251D01*
X742259Y267909D01*
X741131Y268473D01*
X740192Y268943D01*
X739628Y269319D01*
X739534Y269413D01*
X739440D01*
X737748Y270447D01*
X736244Y271481D01*
X734929Y272420D01*
X733895Y273266D01*
X732955Y273924D01*
X732391Y274488D01*
X731921Y274864D01*
X731827Y274958D01*
Y224115D01*
X723839D01*
Y289431D01*
X729008D01*
X729948Y287833D01*
D02*
G37*
G36*
X791223Y290089D02*
X794230Y289619D01*
X796861Y289055D01*
X798083Y288679D01*
X799211Y288303D01*
X800245Y287927D01*
X801185Y287551D01*
X801936Y287269D01*
X802688Y286987D01*
X803158Y286705D01*
X803534Y286517D01*
X803816Y286423D01*
X803910Y286329D01*
X806447Y284732D01*
X808609Y282852D01*
X810489Y280973D01*
X812086Y279093D01*
X813308Y277401D01*
X813778Y276649D01*
X814154Y275992D01*
X814530Y275522D01*
X814718Y275146D01*
X814812Y274864D01*
X814906Y274770D01*
X816221Y271856D01*
X817161Y268849D01*
X817819Y265842D01*
X818289Y263116D01*
X818477Y261895D01*
X818571Y260673D01*
X818665Y259733D01*
Y258793D01*
X818759Y258135D01*
Y257571D01*
Y257196D01*
Y257102D01*
X818571Y253718D01*
X818195Y250429D01*
X817725Y247516D01*
X817349Y246106D01*
X817067Y244884D01*
X816785Y243756D01*
X816409Y242723D01*
X816127Y241783D01*
X815939Y241031D01*
X815658Y240467D01*
X815564Y239997D01*
X815376Y239715D01*
Y239621D01*
X813966Y236802D01*
X812368Y234264D01*
X810677Y232103D01*
X809831Y231257D01*
X809079Y230411D01*
X808327Y229659D01*
X807575Y229002D01*
X806917Y228438D01*
X806353Y228062D01*
X805978Y227686D01*
X805602Y227404D01*
X805414Y227310D01*
X805320Y227216D01*
X804004Y226464D01*
X802688Y225806D01*
X799869Y224772D01*
X797049Y224021D01*
X794324Y223551D01*
X793008Y223363D01*
X791881Y223175D01*
X790847Y223081D01*
X790001D01*
X789249Y222987D01*
X788215D01*
X786336Y223081D01*
X784550Y223269D01*
X782858Y223457D01*
X781261Y223833D01*
X779757Y224303D01*
X778347Y224772D01*
X777032Y225242D01*
X775810Y225806D01*
X774776Y226276D01*
X773742Y226746D01*
X772991Y227216D01*
X772239Y227686D01*
X771769Y228062D01*
X771299Y228250D01*
X771111Y228438D01*
X771017Y228532D01*
X769701Y229659D01*
X768574Y230787D01*
X767540Y232103D01*
X766506Y233419D01*
X764814Y236050D01*
X763499Y238682D01*
X762935Y239903D01*
X762465Y241031D01*
X762089Y242065D01*
X761807Y242911D01*
X761525Y243662D01*
X761337Y244226D01*
X761243Y244602D01*
Y244696D01*
X769889Y246858D01*
X770265Y245354D01*
X770735Y243944D01*
X771205Y242629D01*
X771675Y241407D01*
X772239Y240279D01*
X772803Y239339D01*
X773460Y238400D01*
X774024Y237554D01*
X774494Y236802D01*
X775058Y236238D01*
X775528Y235674D01*
X775904Y235204D01*
X776280Y234922D01*
X776562Y234640D01*
X776656Y234546D01*
X776750Y234452D01*
X777690Y233701D01*
X778723Y233137D01*
X780791Y232103D01*
X782764Y231351D01*
X784738Y230881D01*
X786430Y230505D01*
X787088Y230411D01*
X787745D01*
X788309Y230317D01*
X788967D01*
X791129Y230411D01*
X793196Y230787D01*
X795076Y231257D01*
X796768Y231821D01*
X798083Y232385D01*
X798647Y232667D01*
X799117Y232855D01*
X799493Y233043D01*
X799775Y233231D01*
X799963Y233325D01*
X800057D01*
X801842Y234640D01*
X803346Y236050D01*
X804662Y237648D01*
X805696Y239151D01*
X806541Y240467D01*
X807105Y241595D01*
X807293Y242065D01*
X807481Y242347D01*
X807575Y242535D01*
Y242629D01*
X808327Y245072D01*
X808891Y247516D01*
X809361Y249959D01*
X809643Y252215D01*
X809737Y253248D01*
X809831Y254188D01*
Y255034D01*
X809925Y255692D01*
Y256256D01*
Y256726D01*
Y257008D01*
Y257102D01*
X809831Y259545D01*
X809643Y261801D01*
X809267Y263868D01*
X808891Y265748D01*
X808609Y267345D01*
X808421Y268003D01*
X808233Y268567D01*
X808139Y269037D01*
X808045Y269319D01*
X807951Y269507D01*
Y269601D01*
X807011Y271762D01*
X805978Y273736D01*
X804850Y275334D01*
X803628Y276743D01*
X802594Y277871D01*
X801748Y278623D01*
X801091Y279093D01*
X800997Y279281D01*
X800903D01*
X798929Y280503D01*
X796768Y281442D01*
X794700Y282100D01*
X792726Y282476D01*
X790941Y282758D01*
X790189Y282852D01*
X789531D01*
X789061Y282946D01*
X788309D01*
X785960Y282852D01*
X783798Y282476D01*
X782013Y281912D01*
X780415Y281348D01*
X779193Y280691D01*
X778253Y280221D01*
X777690Y279845D01*
X777502Y279657D01*
X775998Y278247D01*
X774588Y276649D01*
X773460Y274958D01*
X772521Y273266D01*
X771769Y271762D01*
X771487Y271011D01*
X771299Y270447D01*
X771111Y269977D01*
X770923Y269601D01*
X770829Y269413D01*
Y269319D01*
X762371Y271293D01*
X762935Y272984D01*
X763499Y274488D01*
X764250Y275898D01*
X764908Y277307D01*
X765660Y278529D01*
X766506Y279657D01*
X767258Y280785D01*
X768010Y281724D01*
X768761Y282476D01*
X769419Y283228D01*
X770077Y283886D01*
X770547Y284356D01*
X771017Y284826D01*
X771393Y285108D01*
X771581Y285202D01*
X771675Y285296D01*
X772991Y286141D01*
X774306Y286987D01*
X775622Y287645D01*
X777032Y288209D01*
X779851Y289055D01*
X782389Y289619D01*
X783610Y289901D01*
X784644Y289995D01*
X785678Y290089D01*
X786524Y290183D01*
X787182Y290277D01*
X788121D01*
X791223Y290089D01*
D02*
G37*
%LPC*%
G36*
X927691Y1083337D02*
X907203D01*
X904665Y1083243D01*
X902504Y1082868D01*
X900624Y1082398D01*
X899215Y1081834D01*
X897993Y1081270D01*
X897241Y1080800D01*
X896771Y1080424D01*
X896583Y1080330D01*
X895455Y1079108D01*
X894610Y1077887D01*
X894046Y1076571D01*
X893576Y1075443D01*
X893388Y1074315D01*
X893294Y1073470D01*
X893200Y1072906D01*
Y1072812D01*
Y1072718D01*
X893294Y1071590D01*
X893482Y1070462D01*
X893764Y1069522D01*
X894046Y1068677D01*
X894422Y1067925D01*
X894704Y1067361D01*
X894892Y1066985D01*
X894986Y1066891D01*
X895643Y1065951D01*
X896489Y1065105D01*
X897335Y1064447D01*
X898181Y1063884D01*
X898933Y1063508D01*
X899497Y1063226D01*
X899872Y1063038D01*
X900060Y1062944D01*
X901376Y1062568D01*
X902880Y1062286D01*
X904384Y1062098D01*
X905887Y1062004D01*
X907203Y1061910D01*
X908331Y1061816D01*
X927691D01*
Y1083337D01*
D02*
G37*
G36*
X-629518Y352981D02*
X-650006D01*
X-652543Y352887D01*
X-654705Y352511D01*
X-656584Y352041D01*
X-657994Y351477D01*
X-659216Y350913D01*
X-659968Y350444D01*
X-660438Y350068D01*
X-660626Y349974D01*
X-661753Y348752D01*
X-662599Y347530D01*
X-663163Y346214D01*
X-663633Y345087D01*
X-663821Y343959D01*
X-663915Y343113D01*
X-664009Y342549D01*
Y342455D01*
Y342361D01*
X-663915Y341234D01*
X-663727Y340106D01*
X-663445Y339166D01*
X-663163Y338320D01*
X-662787Y337568D01*
X-662505Y337004D01*
X-662317Y336628D01*
X-662223Y336535D01*
X-661565Y335595D01*
X-660720Y334749D01*
X-659874Y334091D01*
X-659028Y333527D01*
X-658276Y333151D01*
X-657712Y332869D01*
X-657336Y332681D01*
X-657148Y332587D01*
X-655833Y332211D01*
X-654329Y331929D01*
X-652825Y331742D01*
X-651322Y331648D01*
X-650006Y331554D01*
X-648878Y331460D01*
X-629518D01*
Y352981D01*
D02*
G37*
G36*
X342561Y1266143D02*
X327148D01*
X325080Y1265955D01*
X323483Y1265861D01*
X322073Y1265673D01*
X321039Y1265485D01*
X320381Y1265391D01*
X319911Y1265203D01*
X319817D01*
X318784Y1264827D01*
X317844Y1264263D01*
X317092Y1263699D01*
X316434Y1263135D01*
X315964Y1262665D01*
X315588Y1262195D01*
X315400Y1261913D01*
X315306Y1261819D01*
X314743Y1260880D01*
X314367Y1259940D01*
X314085Y1259000D01*
X313897Y1258060D01*
X313803Y1257308D01*
X313709Y1256745D01*
Y1256369D01*
Y1256181D01*
X313803Y1254959D01*
X313991Y1253831D01*
X314273Y1252891D01*
X314555Y1252139D01*
X314837Y1251482D01*
X315118Y1250918D01*
X315306Y1250636D01*
X315400Y1250542D01*
X316058Y1249790D01*
X316904Y1249038D01*
X317750Y1248474D01*
X318502Y1248098D01*
X319254Y1247722D01*
X319817Y1247440D01*
X320193Y1247347D01*
X320381Y1247253D01*
X321415Y1247065D01*
X322731Y1246877D01*
X324047Y1246783D01*
X325362Y1246689D01*
X326584Y1246595D01*
X342561D01*
Y1266143D01*
D02*
G37*
G36*
Y1238888D02*
X325456D01*
X323483Y1238700D01*
X321885Y1238512D01*
X320569Y1238324D01*
X319536Y1238136D01*
X318690Y1237949D01*
X318314Y1237855D01*
X318126Y1237761D01*
X316904Y1237291D01*
X315870Y1236727D01*
X314931Y1236069D01*
X314179Y1235411D01*
X313615Y1234847D01*
X313239Y1234377D01*
X312957Y1234001D01*
X312863Y1233907D01*
X312205Y1232874D01*
X311735Y1231840D01*
X311359Y1230806D01*
X311171Y1229866D01*
X310983Y1229020D01*
X310889Y1228269D01*
Y1227893D01*
Y1227705D01*
X310983Y1226577D01*
X311077Y1225449D01*
X311265Y1224509D01*
X311547Y1223758D01*
X311829Y1223100D01*
X312017Y1222536D01*
X312111Y1222254D01*
X312205Y1222160D01*
X312769Y1221314D01*
X313239Y1220562D01*
X313897Y1219998D01*
X314367Y1219434D01*
X314837Y1219059D01*
X315212Y1218777D01*
X315494Y1218589D01*
X315588Y1218495D01*
X317186Y1217743D01*
X318784Y1217179D01*
X319442Y1216991D01*
X320005Y1216897D01*
X320381Y1216803D01*
X320475D01*
X321227Y1216709D01*
X322073Y1216615D01*
X324047Y1216521D01*
X342561D01*
Y1238888D01*
D02*
G37*
G36*
X935832Y1261401D02*
X920795D01*
X919573Y1261307D01*
X918352D01*
X917224Y1261213D01*
X915344Y1260931D01*
X913841Y1260743D01*
X912619Y1260461D01*
X911773Y1260179D01*
X911303Y1260085D01*
X911115Y1259991D01*
X909424Y1259145D01*
X907826Y1258112D01*
X906416Y1256890D01*
X905195Y1255668D01*
X904255Y1254540D01*
X903503Y1253600D01*
X903315Y1253225D01*
X903127Y1252943D01*
X902939Y1252755D01*
Y1252661D01*
X902375Y1251627D01*
X901811Y1250405D01*
X900965Y1247962D01*
X900402Y1245330D01*
X899932Y1242793D01*
X899838Y1241665D01*
X899744Y1240537D01*
X899650Y1239597D01*
Y1238752D01*
X899556Y1238000D01*
Y1237530D01*
Y1237154D01*
Y1237060D01*
X899650Y1234429D01*
X899838Y1231985D01*
X900120Y1229824D01*
X900402Y1227944D01*
X900590Y1227192D01*
X900777Y1226534D01*
X900965Y1225876D01*
X901059Y1225406D01*
X901153Y1225031D01*
X901247Y1224749D01*
X901341Y1224561D01*
Y1224467D01*
X901999Y1222681D01*
X902751Y1221083D01*
X903597Y1219674D01*
X904349Y1218452D01*
X905007Y1217512D01*
X905570Y1216854D01*
X905946Y1216478D01*
X906040Y1216290D01*
X906980Y1215539D01*
X907920Y1214881D01*
X908860Y1214317D01*
X909800Y1213753D01*
X910645Y1213377D01*
X911303Y1213095D01*
X911773Y1213001D01*
X911961Y1212907D01*
X913371Y1212531D01*
X915062Y1212249D01*
X916754Y1212061D01*
X918352Y1211967D01*
X919761Y1211873D01*
X920419Y1211779D01*
X935832D01*
Y1261401D01*
D02*
G37*
G36*
X315789Y856038D02*
Y826904D01*
X336277D01*
X315789Y856038D01*
D02*
G37*
%LPD*%
D45*
X622300Y1066800D02*
G03*
X622300Y1066800I-38100J0D01*
G01*
Y-1066800D02*
G03*
X622300Y-1066800I-38100J0D01*
G01*
D46*
X439598Y514604D02*
X579603D01*
X439598D02*
Y704596D01*
X779602D01*
Y514604D02*
Y704596D01*
X579603Y514604D02*
X779602D01*
X653122Y930865D02*
X793126D01*
Y740873D02*
Y930865D01*
X453122Y740873D02*
X793126D01*
X453122D02*
Y930865D01*
X653122D01*
D47*
X359800Y324200D02*
G03*
X359800Y324200I-12500J0D01*
G01*
D48*
X522100Y1335000D02*
X778400D01*
X522100Y1205000D02*
X697100D01*
X430500Y974300D02*
Y1149300D01*
X586700Y976567D02*
Y1151567D01*
D49*
X485544Y481803D02*
X690544D01*
X485544Y371803D02*
X693044D01*
X475500Y199000D02*
X683000D01*
X475500Y309000D02*
X680500D01*
D50*
X598044Y406803D02*
Y446803D01*
X578044Y406803D02*
Y446803D01*
X568044Y426803D02*
X578044D01*
X598044D02*
X608044D01*
X588000Y254000D02*
X598000D01*
X558000D02*
X568000D01*
Y234000D02*
Y274000D01*
X588000Y234000D02*
Y274000D01*
D51*
X431800Y-1219238D02*
Y-1397000D01*
X313292Y-1219238D02*
Y-1397000D01*
X431800Y-1303887D02*
X313292D01*
X213407Y-1219238D02*
X238801Y-1227703D01*
X255731Y-1253098D01*
X264196Y-1295422D01*
Y-1320816D01*
X255731Y-1363141D01*
X238801Y-1388535D01*
X213407Y-1397000D01*
X196477D01*
X171082Y-1388535D01*
X154153Y-1363141D01*
X145688Y-1320816D01*
Y-1295422D01*
X154153Y-1253098D01*
X171082Y-1227703D01*
X196477Y-1219238D01*
X213407D01*
X105903Y-1253098D02*
X88973Y-1244633D01*
X63579Y-1219238D01*
Y-1397000D01*
X-24456Y-1219238D02*
Y-1397000D01*
Y-1219238D02*
X-100639D01*
X-126034Y-1227703D01*
X-134499Y-1236168D01*
X-142964Y-1253098D01*
Y-1270027D01*
X-134499Y-1286957D01*
X-126034Y-1295422D01*
X-100639Y-1303887D01*
X-24456D01*
X-83710D02*
X-142964Y-1397000D01*
X-233538Y-1219238D02*
X-208143Y-1227703D01*
X-191213Y-1253098D01*
X-182748Y-1295422D01*
Y-1320816D01*
X-191213Y-1363141D01*
X-208143Y-1388535D01*
X-233538Y-1397000D01*
X-250467D01*
X-275862Y-1388535D01*
X-292791Y-1363141D01*
X-301256Y-1320816D01*
Y-1295422D01*
X-292791Y-1253098D01*
X-275862Y-1227703D01*
X-250467Y-1219238D01*
X-233538D01*
X-391830D02*
X-366436Y-1227703D01*
X-349506Y-1253098D01*
X-341041Y-1295422D01*
Y-1320816D01*
X-349506Y-1363141D01*
X-366436Y-1388535D01*
X-391830Y-1397000D01*
X-408760D01*
X-434155Y-1388535D01*
X-451084Y-1363141D01*
X-459549Y-1320816D01*
Y-1295422D01*
X-451084Y-1253098D01*
X-434155Y-1227703D01*
X-408760Y-1219238D01*
X-391830D01*
X-1102286Y-475133D02*
X-1184999D01*
X-1212571Y-465943D01*
X-1221761Y-456752D01*
X-1230951Y-438372D01*
Y-410801D01*
X-1221761Y-392420D01*
X-1212571Y-383229D01*
X-1184999Y-374039D01*
X-1102286D01*
Y-567037D01*
X-1292527Y-374039D02*
X-1393622D01*
X-1338479Y-447562D01*
X-1366050D01*
X-1384431Y-456752D01*
X-1393622Y-465943D01*
X-1402812Y-493514D01*
Y-511895D01*
X-1393622Y-539466D01*
X-1375241Y-557847D01*
X-1347670Y-567037D01*
X-1320098D01*
X-1292527Y-557847D01*
X-1283337Y-548657D01*
X-1274146Y-530276D01*
X1346200Y-482095D02*
X1263486D01*
X1235915Y-472904D01*
X1226725Y-463714D01*
X1217534Y-445333D01*
Y-417762D01*
X1226725Y-399381D01*
X1235915Y-390190D01*
X1263486Y-381000D01*
X1346200D01*
Y-573999D01*
X1165149Y-426952D02*
Y-417762D01*
X1155959Y-399381D01*
X1146768Y-390190D01*
X1128387Y-381000D01*
X1091625D01*
X1073245Y-390190D01*
X1064054Y-399381D01*
X1054864Y-417762D01*
Y-436142D01*
X1064054Y-454523D01*
X1082435Y-482095D01*
X1174339Y-573999D01*
X1045674D01*
X956526Y-381000D02*
Y-491285D01*
X1002479Y-408571D02*
X910575Y-463714D01*
Y-408571D02*
X1002479Y-463714D01*
X1124804Y664190D02*
X1042090D01*
X1014519Y673380D01*
X1005328Y682571D01*
X996138Y700951D01*
Y728523D01*
X1005328Y746904D01*
X1014519Y756094D01*
X1042090Y765284D01*
X1124804D01*
Y572286D01*
X952943Y728523D02*
X934562Y737713D01*
X906991Y765284D01*
Y572286D01*
X-823902Y702854D02*
X-906615D01*
X-934187Y712045D01*
X-943377Y721235D01*
X-952567Y739616D01*
Y767187D01*
X-943377Y785568D01*
X-934187Y794758D01*
X-906615Y803949D01*
X-823902D01*
Y610950D01*
X-1087666Y803949D02*
X-995762Y675283D01*
X-1133619D01*
X-1087666Y803949D02*
Y610950D01*
D52*
X-719166Y-1240378D02*
X-723036Y-1251987D01*
Y-1228769D01*
X-719166Y-1240378D01*
X-711427Y-1232638D01*
X-699818Y-1228769D01*
X-692079D01*
X-680470Y-1232638D01*
X-672730Y-1240378D01*
X-668861Y-1248117D01*
X-664991Y-1259726D01*
Y-1279074D01*
X-668861Y-1290683D01*
X-672730Y-1298422D01*
X-680470Y-1306161D01*
X-692079Y-1310031D01*
X-699818D01*
X-711427Y-1306161D01*
X-719166Y-1298422D01*
X-692079Y-1228769D02*
X-684339Y-1232638D01*
X-676600Y-1240378D01*
X-672730Y-1248117D01*
X-668861Y-1259726D01*
Y-1279074D01*
X-672730Y-1290683D01*
X-676600Y-1298422D01*
X-684339Y-1306161D01*
X-692079Y-1310031D01*
X-719166Y-1279074D02*
Y-1310031D01*
X-723036Y-1279074D02*
Y-1310031D01*
X-707557Y-1279074D02*
X-734645D01*
X-756702Y-1228769D02*
Y-1310031D01*
X-760571Y-1228769D02*
X-807007Y-1302292D01*
X-760571Y-1236508D02*
X-807007Y-1310031D01*
Y-1228769D02*
Y-1310031D01*
X-745093Y-1228769D02*
X-760571D01*
X-795398D02*
X-818616D01*
X-745093Y-1310031D02*
X-768311D01*
X-840286Y-1228769D02*
Y-1310031D01*
X-844156Y-1228769D02*
Y-1310031D01*
X-828677Y-1228769D02*
X-867373D01*
X-878982Y-1232638D01*
X-886722Y-1240378D01*
X-890591Y-1248117D01*
X-894461Y-1259726D01*
Y-1279074D01*
X-890591Y-1290683D01*
X-886722Y-1298422D01*
X-878982Y-1306161D01*
X-867373Y-1310031D01*
X-828677D01*
X-867373Y-1228769D02*
X-875113Y-1232638D01*
X-882852Y-1240378D01*
X-886722Y-1248117D01*
X-890591Y-1259726D01*
Y-1279074D01*
X-886722Y-1290683D01*
X-882852Y-1298422D01*
X-875113Y-1306161D01*
X-867373Y-1310031D01*
X801805Y-1238429D02*
X797935Y-1250038D01*
Y-1226820D01*
X801805Y-1238429D01*
X809544Y-1230689D01*
X821153Y-1226820D01*
X828892D01*
X840501Y-1230689D01*
X848241Y-1238429D01*
X852110Y-1246168D01*
X855980Y-1257777D01*
Y-1277125D01*
X852110Y-1288734D01*
X848241Y-1296474D01*
X840501Y-1304213D01*
X828892Y-1308082D01*
X821153D01*
X809544Y-1304213D01*
X801805Y-1296474D01*
X828892Y-1226820D02*
X836632Y-1230689D01*
X844371Y-1238429D01*
X848241Y-1246168D01*
X852110Y-1257777D01*
Y-1277125D01*
X848241Y-1288734D01*
X844371Y-1296474D01*
X836632Y-1304213D01*
X828892Y-1308082D01*
X801805Y-1277125D02*
Y-1308082D01*
X797935Y-1277125D02*
Y-1308082D01*
X813414Y-1277125D02*
X786326D01*
X764269Y-1226820D02*
Y-1308082D01*
X760400Y-1226820D02*
X713964Y-1300343D01*
X760400Y-1234559D02*
X713964Y-1308082D01*
Y-1226820D02*
Y-1308082D01*
X775878Y-1226820D02*
X760400D01*
X725573D02*
X702355D01*
X775878Y-1308082D02*
X752660D01*
X680685Y-1226820D02*
Y-1308082D01*
X676816Y-1226820D02*
Y-1308082D01*
X692294Y-1226820D02*
X653598D01*
X641989Y-1230689D01*
X634249Y-1238429D01*
X630380Y-1246168D01*
X626510Y-1257777D01*
Y-1277125D01*
X630380Y-1288734D01*
X634249Y-1296474D01*
X641989Y-1304213D01*
X653598Y-1308082D01*
X692294D01*
X653598Y-1226820D02*
X645858Y-1230689D01*
X638119Y-1238429D01*
X634249Y-1246168D01*
X630380Y-1257777D01*
Y-1277125D01*
X634249Y-1288734D01*
X638119Y-1296474D01*
X645858Y-1304213D01*
X653598Y-1308082D01*
X664242Y1445232D02*
X660372Y1433623D01*
Y1456841D01*
X664242Y1445232D01*
X671981Y1452971D01*
X683590Y1456841D01*
X691329D01*
X702938Y1452971D01*
X710678Y1445232D01*
X714547Y1437493D01*
X718417Y1425884D01*
Y1406536D01*
X714547Y1394927D01*
X710678Y1387187D01*
X702938Y1379448D01*
X691329Y1375578D01*
X683590D01*
X671981Y1379448D01*
X664242Y1387187D01*
X691329Y1456841D02*
X699069Y1452971D01*
X706808Y1445232D01*
X710678Y1437493D01*
X714547Y1425884D01*
Y1406536D01*
X710678Y1394927D01*
X706808Y1387187D01*
X699069Y1379448D01*
X691329Y1375578D01*
X664242Y1406536D02*
Y1375578D01*
X660372Y1406536D02*
Y1375578D01*
X675851Y1406536D02*
X648763D01*
X626706Y1456841D02*
Y1375578D01*
X622837Y1456841D02*
X576401Y1383318D01*
X622837Y1449102D02*
X576401Y1375578D01*
Y1456841D02*
Y1375578D01*
X638315Y1456841D02*
X622837D01*
X588010D02*
X564792D01*
X638315Y1375578D02*
X615097D01*
X543122Y1456841D02*
Y1375578D01*
X539252Y1456841D02*
Y1375578D01*
X554731Y1456841D02*
X516035D01*
X504425Y1452971D01*
X496686Y1445232D01*
X492817Y1437493D01*
X488947Y1425884D01*
Y1406536D01*
X492817Y1394927D01*
X496686Y1387187D01*
X504425Y1379448D01*
X516035Y1375578D01*
X554731D01*
X516035Y1456841D02*
X508295Y1452971D01*
X500556Y1445232D01*
X496686Y1437493D01*
X492817Y1425884D01*
Y1406536D01*
X496686Y1394927D01*
X500556Y1387187D01*
X508295Y1379448D01*
X516035Y1375578D01*
X-535868Y1446556D02*
X-539737Y1434947D01*
Y1458165D01*
X-535868Y1446556D01*
X-528128Y1454295D01*
X-516519Y1458165D01*
X-508780D01*
X-497171Y1454295D01*
X-489432Y1446556D01*
X-485562Y1438817D01*
X-481692Y1427208D01*
Y1407860D01*
X-485562Y1396250D01*
X-489432Y1388511D01*
X-497171Y1380772D01*
X-508780Y1376902D01*
X-516519D01*
X-528128Y1380772D01*
X-535868Y1388511D01*
X-508780Y1458165D02*
X-501041Y1454295D01*
X-493301Y1446556D01*
X-489432Y1438817D01*
X-485562Y1427208D01*
Y1407860D01*
X-489432Y1396250D01*
X-493301Y1388511D01*
X-501041Y1380772D01*
X-508780Y1376902D01*
X-535868Y1407860D02*
Y1376902D01*
X-539737Y1407860D02*
Y1376902D01*
X-524259Y1407860D02*
X-551346D01*
X-573403Y1458165D02*
Y1376902D01*
X-577273Y1458165D02*
X-623708Y1384642D01*
X-577273Y1450426D02*
X-623708Y1376902D01*
Y1458165D02*
Y1376902D01*
X-561794Y1458165D02*
X-577273D01*
X-612100D02*
X-635318D01*
X-561794Y1376902D02*
X-585012D01*
X-656987Y1458165D02*
Y1376902D01*
X-660857Y1458165D02*
Y1376902D01*
X-645378Y1458165D02*
X-684075D01*
X-695684Y1454295D01*
X-703423Y1446556D01*
X-707293Y1438817D01*
X-711162Y1427208D01*
Y1407860D01*
X-707293Y1396250D01*
X-703423Y1388511D01*
X-695684Y1380772D01*
X-684075Y1376902D01*
X-645378D01*
X-684075Y1458165D02*
X-691814Y1454295D01*
X-699554Y1446556D01*
X-703423Y1438817D01*
X-707293Y1427208D01*
Y1407860D01*
X-703423Y1396250D01*
X-699554Y1388511D01*
X-691814Y1380772D01*
X-684075Y1376902D01*
X1441629Y39805D02*
X1453238Y35935D01*
X1430020D01*
X1441629Y39805D01*
X1433889Y47544D01*
X1430020Y59153D01*
Y66892D01*
X1433889Y78501D01*
X1441629Y86241D01*
X1449368Y90110D01*
X1460977Y93980D01*
X1480325D01*
X1491934Y90110D01*
X1499674Y86241D01*
X1507413Y78501D01*
X1511282Y66892D01*
Y59153D01*
X1507413Y47544D01*
X1499674Y39805D01*
X1430020Y66892D02*
X1433889Y74632D01*
X1441629Y82371D01*
X1449368Y86241D01*
X1460977Y90110D01*
X1480325D01*
X1491934Y86241D01*
X1499674Y82371D01*
X1507413Y74632D01*
X1511282Y66892D01*
X1480325Y39805D02*
X1511282D01*
X1480325Y35935D02*
X1511282D01*
X1480325Y51414D02*
Y24326D01*
X1430020Y2269D02*
X1511282D01*
X1430020Y-1600D02*
X1503543Y-48036D01*
X1437759Y-1600D02*
X1511282Y-48036D01*
X1430020D02*
X1511282D01*
X1430020Y13878D02*
Y-1600D01*
Y-36427D02*
Y-59645D01*
X1511282Y13878D02*
Y-9340D01*
X1430020Y-81315D02*
X1511282D01*
X1430020Y-85184D02*
X1511282D01*
X1430020Y-69706D02*
Y-108402D01*
X1433889Y-120011D01*
X1441629Y-127751D01*
X1449368Y-131620D01*
X1460977Y-135490D01*
X1480325D01*
X1491934Y-131620D01*
X1499674Y-127751D01*
X1507413Y-120011D01*
X1511282Y-108402D01*
Y-69706D01*
X1430020Y-108402D02*
X1433889Y-116142D01*
X1441629Y-123881D01*
X1449368Y-127751D01*
X1460977Y-131620D01*
X1480325D01*
X1491934Y-127751D01*
X1499674Y-123881D01*
X1507413Y-116142D01*
X1511282Y-108402D01*
X-1504771Y90605D02*
X-1493162Y86735D01*
X-1516380D01*
X-1504771Y90605D01*
X-1512511Y98344D01*
X-1516380Y109953D01*
Y117692D01*
X-1512511Y129301D01*
X-1504771Y137041D01*
X-1497032Y140910D01*
X-1485423Y144780D01*
X-1466075D01*
X-1454466Y140910D01*
X-1446726Y137041D01*
X-1438987Y129301D01*
X-1435118Y117692D01*
Y109953D01*
X-1438987Y98344D01*
X-1446726Y90605D01*
X-1516380Y117692D02*
X-1512511Y125432D01*
X-1504771Y133171D01*
X-1497032Y137041D01*
X-1485423Y140910D01*
X-1466075D01*
X-1454466Y137041D01*
X-1446726Y133171D01*
X-1438987Y125432D01*
X-1435118Y117692D01*
X-1466075Y90605D02*
X-1435118D01*
X-1466075Y86735D02*
X-1435118D01*
X-1466075Y102214D02*
Y75126D01*
X-1516380Y53069D02*
X-1435118D01*
X-1516380Y49200D02*
X-1442857Y2764D01*
X-1508641Y49200D02*
X-1435118Y2764D01*
X-1516380D02*
X-1435118D01*
X-1516380Y64678D02*
Y49200D01*
Y14373D02*
Y-8845D01*
X-1435118Y64678D02*
Y41460D01*
X-1516380Y-30515D02*
X-1435118D01*
X-1516380Y-34384D02*
X-1435118D01*
X-1516380Y-18906D02*
Y-57602D01*
X-1512511Y-69211D01*
X-1504771Y-76951D01*
X-1497032Y-80820D01*
X-1485423Y-84690D01*
X-1466075D01*
X-1454466Y-80820D01*
X-1446726Y-76951D01*
X-1438987Y-69211D01*
X-1435118Y-57602D01*
Y-18906D01*
X-1516380Y-57602D02*
X-1512511Y-65342D01*
X-1504771Y-73081D01*
X-1497032Y-76951D01*
X-1485423Y-80820D01*
X-1466075D01*
X-1454466Y-76951D01*
X-1446726Y-73081D01*
X-1438987Y-65342D01*
X-1435118Y-57602D01*
%TF.MD5,d13ac46100ddc5bef6729e82fd34074f*%
M02*
