%TF.GenerationSoftware,Altium Limited,Altium Designer,25.8.1 (18)*%
G04 Layer_Color=8388736*
%FSLAX45Y45*%
%MOMM*%
%TF.SameCoordinates,D209C50B-13B8-4165-AD63-5D07F8741E93*%
%TF.FilePolarity,Negative*%
%TF.FileFunction,Soldermask,Top*%
%TF.Part,Single*%
G01*
G75*
%TA.AperFunction,SMDPad,CuDef*%
%ADD10R,0.76200X0.25400*%
%ADD13R,1.80340X2.59080*%
%ADD14R,0.86213X0.85776*%
%ADD16R,0.60000X0.50000*%
%ADD17R,0.50000X0.60000*%
%ADD18R,0.80000X0.80000*%
%TA.AperFunction,ComponentPad*%
%ADD30C,2.03200*%
%ADD31C,1.57000*%
%ADD32R,1.57000X1.57000*%
%TA.AperFunction,SMDPad,CuDef*%
%ADD53R,0.74000X0.99000*%
%ADD54R,1.15320X1.00320*%
G04:AMPARAMS|DCode=55|XSize=1.2032mm|YSize=1.2032mm|CornerRadius=0.6016mm|HoleSize=0mm|Usage=FLASHONLY|Rotation=120.000|XOffset=0mm|YOffset=0mm|HoleType=Round|Shape=RoundedRectangle|*
%AMROUNDEDRECTD55*
21,1,1.20320,0.00000,0,0,120.0*
21,1,0.00000,1.20320,0,0,120.0*
1,1,1.20320,0.00000,0.00000*
1,1,1.20320,0.00000,0.00000*
1,1,1.20320,0.00000,0.00000*
1,1,1.20320,0.00000,0.00000*
%
%ADD55ROUNDEDRECTD55*%
G04:AMPARAMS|DCode=56|XSize=1.2032mm|YSize=1.2032mm|CornerRadius=0.6016mm|HoleSize=0mm|Usage=FLASHONLY|Rotation=0.000|XOffset=0mm|YOffset=0mm|HoleType=Round|Shape=RoundedRectangle|*
%AMROUNDEDRECTD56*
21,1,1.20320,0.00000,0,0,0.0*
21,1,0.00000,1.20320,0,0,0.0*
1,1,1.20320,0.00000,0.00000*
1,1,1.20320,0.00000,0.00000*
1,1,1.20320,0.00000,0.00000*
1,1,1.20320,0.00000,0.00000*
%
%ADD56ROUNDEDRECTD56*%
G04:AMPARAMS|DCode=57|XSize=1.2032mm|YSize=1.2032mm|CornerRadius=0.6016mm|HoleSize=0mm|Usage=FLASHONLY|Rotation=60.000|XOffset=0mm|YOffset=0mm|HoleType=Round|Shape=RoundedRectangle|*
%AMROUNDEDRECTD57*
21,1,1.20320,0.00000,0,0,60.0*
21,1,0.00000,1.20320,0,0,60.0*
1,1,1.20320,0.00000,0.00000*
1,1,1.20320,0.00000,0.00000*
1,1,1.20320,0.00000,0.00000*
1,1,1.20320,0.00000,0.00000*
%
%ADD57ROUNDEDRECTD57*%
%TA.AperFunction,ViaPad*%
%ADD58C,0.96520*%
%ADD59C,0.71120*%
%ADD60C,0.66040*%
%ADD61C,0.63500*%
%ADD62C,0.58420*%
G36*
X-680679Y1505001D02*
X-671062D01*
X-670593Y1487514D01*
X-670617Y1487355D01*
X-670595Y1486512D01*
X-675893Y1451930D01*
X-687257Y1418841D01*
X-704324Y1388302D01*
X-726552Y1361284D01*
X-753230Y1338651D01*
X-783508Y1321123D01*
X-816421Y1309260D01*
X-850919Y1303439D01*
X-885902Y1303847D01*
X-920255Y1310471D01*
X-952882Y1323098D01*
X-967812Y1332212D01*
X-967385Y1332955D01*
X-967811Y1333215D01*
X-962688Y1342110D01*
X-963200Y1342424D01*
Y1342424D01*
X-868900Y1505302D01*
X-680694Y1505529D01*
X-680679Y1505001D01*
D02*
G37*
G36*
X-1200432Y895437D02*
X-1173512Y872965D01*
X-1151590Y845595D01*
X-1135541Y814417D01*
X-1126003Y780672D01*
X-1123357Y745705D01*
X-1123406Y745319D01*
X-1123359Y744703D01*
X-1127710Y709907D01*
X-1138885Y676669D01*
X-1147741Y661353D01*
X-1156613Y645963D01*
X-1179811Y619666D01*
X-1207770Y598500D01*
X-1239375Y583308D01*
X-1273367Y574695D01*
X-1308393Y573005D01*
X-1343057Y578305D01*
X-1375978Y590383D01*
X-1390912Y599571D01*
X-1390911D01*
X-1390602Y600108D01*
X-1390798Y600229D01*
X-1390370Y600968D01*
X-1390796Y601231D01*
X-1390796D01*
X-1215856Y903775D01*
X-1200432Y895437D01*
D02*
G37*
G36*
X-1623477Y162407D02*
X-1596148Y140453D01*
X-1573160Y113988D01*
X-1555246Y83857D01*
X-1542976Y51020D01*
X-1536741Y16525D01*
Y-18530D01*
X-1542976Y-53025D01*
X-1555246Y-85862D01*
X-1573160Y-115993D01*
X-1596148Y-142457D01*
X-1623477Y-164412D01*
X-1638875Y-172783D01*
X-1737776Y-1002D01*
X-1737487Y-500D01*
X-1737775Y0D01*
X-1643868Y163105D01*
X-1643430Y162868D01*
X-1638875Y170779D01*
X-1623477Y162407D01*
D02*
G37*
G36*
X-1273285Y-576201D02*
X-1239281Y-584768D01*
X-1207656Y-599919D01*
X-1179669Y-621048D01*
X-1156437Y-647314D01*
X-1138883Y-677671D01*
X-1127708Y-710910D01*
X-1123357Y-745706D01*
X-1123405Y-746339D01*
X-1123359Y-746708D01*
X-1126005Y-781675D01*
X-1135543Y-815420D01*
X-1151592Y-846598D01*
X-1173514Y-873968D01*
X-1200434Y-896439D01*
X-1215858Y-904778D01*
X-1215858Y-904778D01*
X-1390798Y-602233D01*
X-1390369Y-601969D01*
X-1390796Y-601231D01*
X-1390796Y-601231D01*
D01*
X-1375875Y-592024D01*
X-1342970Y-579902D01*
X-1308313Y-574557D01*
X-1273285Y-576201D01*
D02*
G37*
G36*
X-816419Y-1310262D02*
X-783506Y-1322126D01*
X-753228Y-1339653D01*
X-726550Y-1362287D01*
X-704323Y-1389304D01*
X-687255Y-1419844D01*
X-675891Y-1452932D01*
X-670593Y-1487514D01*
X-671062Y-1505001D01*
X-680679D01*
X-680694Y-1505529D01*
X-868900Y-1505302D01*
X-963200Y-1342424D01*
X-962688Y-1342110D01*
X-967811Y-1333215D01*
D01*
Y-1333215D01*
Y-1333215D01*
X-952880Y-1324100D01*
X-920253Y-1311473D01*
X-885900Y-1304850D01*
X-850917Y-1304442D01*
X-816419Y-1310262D01*
D02*
G37*
G36*
X868900Y1505302D02*
X963200Y1342424D01*
X962688Y1342109D01*
X967810Y1333215D01*
X967382Y1332953D01*
X967809Y1332212D01*
X967809D01*
X952878Y1323098D01*
X920251Y1310471D01*
X885898Y1303847D01*
X850915Y1303439D01*
X816417Y1309260D01*
X783504Y1321123D01*
X753226Y1338651D01*
X726548Y1361284D01*
X704321Y1388302D01*
X687253Y1418841D01*
X675889Y1451930D01*
X670591Y1486512D01*
X670614Y1487375D01*
X670593Y1487514D01*
X671061Y1505001D01*
X680679D01*
X680694Y1505529D01*
Y1505529D01*
X868900Y1505302D01*
D02*
G37*
G36*
X1390796Y601231D02*
X1390367Y600967D01*
X1390794Y600229D01*
X1375873Y591021D01*
X1342968Y578900D01*
X1308311Y573554D01*
X1273283Y575198D01*
X1239279Y583766D01*
X1207654Y598916D01*
X1179667Y620045D01*
X1156435Y646312D01*
X1138881Y676669D01*
X1127706Y709907D01*
X1123355Y744703D01*
X1123403Y745336D01*
X1123357Y745705D01*
X1126003Y780672D01*
X1135541Y814417D01*
X1151590Y845595D01*
X1173511Y872965D01*
X1200432Y895437D01*
X1215856Y903775D01*
X1390796Y601231D01*
D02*
G37*
G36*
X1643427Y162866D02*
X1643868Y163105D01*
X1643868D01*
X1737775Y0D01*
X1737485Y-503D01*
X1737773Y-1002D01*
X1638871Y-172783D01*
X1623473Y-164412D01*
X1596145Y-142457D01*
X1573157Y-115993D01*
X1555242Y-85862D01*
X1542972Y-53025D01*
X1536737Y-18530D01*
Y16525D01*
X1542972Y51020D01*
X1555242Y83857D01*
X1573157Y113988D01*
X1596145Y140453D01*
X1623473Y162407D01*
X1638871Y170779D01*
X1638872D01*
X1643427Y162866D01*
D02*
G37*
G36*
X1390908Y-601576D02*
D01*
Y-601576D01*
Y-601576D01*
D02*
G37*
G36*
X1390794Y-602233D02*
D01*
Y-602233D01*
Y-602233D01*
D02*
G37*
G36*
X1342970Y-579902D02*
X1375875Y-592024D01*
X1390796Y-601231D01*
X1390678Y-601435D01*
X1390908Y-601576D01*
X1390598Y-602113D01*
X1390794Y-602233D01*
X1303462Y-753266D01*
X1216367Y-904350D01*
X1216164Y-904242D01*
X1215854Y-904778D01*
X1200430Y-896439D01*
X1173510Y-873968D01*
X1151588Y-846598D01*
X1135539Y-815420D01*
X1126001Y-781675D01*
X1123355Y-746708D01*
X1123404Y-746321D01*
X1123357Y-745706D01*
X1127708Y-710910D01*
X1138883Y-677671D01*
X1156436Y-647314D01*
X1179669Y-621048D01*
X1207655Y-599919D01*
X1239280Y-584768D01*
X1273284Y-576201D01*
X1308313Y-574557D01*
X1342970Y-579902D01*
D02*
G37*
G36*
X885900Y-1304850D02*
X920253Y-1311473D01*
X952880Y-1324100D01*
X967810Y-1333215D01*
X967811Y-1333215D01*
X962688Y-1342110D01*
X963200Y-1342424D01*
X868900Y-1505302D01*
X680694Y-1505529D01*
X680679Y-1505001D01*
X671061D01*
X670593Y-1487514D01*
X675891Y-1452932D01*
X687255Y-1419844D01*
X704322Y-1389304D01*
X726550Y-1362287D01*
X753228Y-1339653D01*
X783506Y-1322126D01*
X816419Y-1310262D01*
X850917Y-1304442D01*
X885900Y-1304850D01*
D02*
G37*
D10*
X817880Y176600D02*
D03*
X1112520D02*
D03*
X817880Y76600D02*
D03*
Y226600D02*
D03*
X1112520Y76600D02*
D03*
Y226600D02*
D03*
Y126600D02*
D03*
X817880D02*
D03*
Y26600D02*
D03*
Y-23400D02*
D03*
X1112520D02*
D03*
Y26600D02*
D03*
D13*
X965200Y101600D02*
D03*
D14*
X1320800Y0D02*
D03*
Y120437D02*
D03*
D16*
X965200Y-254000D02*
D03*
Y-104000D02*
D03*
D17*
Y-355600D02*
D03*
X1115200D02*
D03*
D18*
X-75000Y0D02*
D03*
X75000D02*
D03*
D30*
X-254000Y1066800D02*
D03*
X254000D02*
D03*
Y-1066800D02*
D03*
X-254000D02*
D03*
D31*
X-965200Y-254000D02*
D03*
Y0D02*
D03*
D32*
Y254000D02*
D03*
D53*
X164800Y-200800D02*
D03*
X304800D02*
D03*
D54*
X254000Y113300D02*
D03*
Y-11700D02*
D03*
D55*
X-1239014Y714008D02*
D03*
X1239010Y-716012D02*
D03*
X826008Y-1431011D02*
D03*
X-826008Y1431011D02*
D03*
D56*
X1239012Y715010D02*
D03*
X-1239012Y-715010D02*
D03*
X1651991Y0D02*
D03*
X-1651991D02*
D03*
D57*
X826008Y1431011D02*
D03*
X-826008Y-1431011D02*
D03*
D58*
X12428Y-202068D02*
D03*
D59*
X-711200Y711200D02*
D03*
X847494Y-417468D02*
D03*
X852441Y-233847D02*
D03*
X965200Y101600D02*
D03*
X-711200Y508000D02*
D03*
X406400Y304800D02*
D03*
X-212131Y116193D02*
D03*
X910636Y491501D02*
D03*
X895449Y-705385D02*
D03*
X892751Y-972353D02*
D03*
X1320800Y-152400D02*
D03*
X-965200Y863600D02*
D03*
X-609600Y-609600D02*
D03*
X609600Y1320800D02*
D03*
X-65023Y-475845D02*
D03*
X-457200Y-914400D02*
D03*
X179275Y-724028D02*
D03*
X979924Y-886196D02*
D03*
X-517720Y-402412D02*
D03*
X254000Y558800D02*
D03*
X803035Y-1055801D02*
D03*
X897722Y-1146328D02*
D03*
X980106Y-1199174D02*
D03*
X1117600Y-254000D02*
D03*
X388730Y-571990D02*
D03*
X606007Y-411845D02*
D03*
X-355600Y457200D02*
D03*
X1320800Y406400D02*
D03*
X-1016000Y-609600D02*
D03*
D60*
X1225002Y127053D02*
D03*
X678175Y107807D02*
D03*
D61*
X184284Y-457767D02*
D03*
X285879Y-442115D02*
D03*
X750252Y-865825D02*
D03*
D62*
X834252Y-809198D02*
D03*
X660400Y-916625D02*
D03*
X406400Y-203200D02*
D03*
%TF.MD5,e7209f451a4a8944093b40a106a6ce8f*%
M02*
