%TF.GenerationSoftware,Altium Limited,Altium Designer,25.8.1 (18)*%
G04 Layer_Color=0*
%FSLAX45Y45*%
%MOMM*%
%TF.SameCoordinates,D209C50B-13B8-4165-AD63-5D07F8741E93*%
%TF.FilePolarity,Positive*%
%TF.FileFunction,Plated,1,2,PTH,Drill*%
%TF.Part,Single*%
G01*
G75*
%TA.AperFunction,ComponentDrill*%
%ADD67C,1.27000*%
%ADD68C,1.02000*%
%TA.AperFunction,ViaDrill,NotFilled*%
%ADD69C,0.38100*%
%ADD70C,0.30480*%
%ADD71C,0.33020*%
%ADD72C,0.25400*%
%ADD73C,0.20320*%
D67*
X-254000Y1066800D02*
D03*
X254000D02*
D03*
Y-1066800D02*
D03*
X-254000D02*
D03*
D68*
X-965200Y-254000D02*
D03*
Y0D02*
D03*
Y254000D02*
D03*
D69*
X12428Y-202068D02*
D03*
X965200Y101600D02*
D03*
X910636Y491501D02*
D03*
X1320800Y-152400D02*
D03*
X-965200Y863600D02*
D03*
X609600Y1320800D02*
D03*
D70*
X-711200Y711200D02*
D03*
X847494Y-417468D02*
D03*
X852441Y-233847D02*
D03*
X-711200Y508000D02*
D03*
X895449Y-705385D02*
D03*
X892751Y-972353D02*
D03*
X-609600Y-609600D02*
D03*
X-65023Y-475845D02*
D03*
X-457200Y-914400D02*
D03*
X179275Y-724028D02*
D03*
X184284Y-457767D02*
D03*
X979924Y-886196D02*
D03*
X-517720Y-402412D02*
D03*
X285879Y-442115D02*
D03*
X803035Y-1055801D02*
D03*
X897722Y-1146328D02*
D03*
X980106Y-1199174D02*
D03*
X1117600Y-254000D02*
D03*
X388730Y-571990D02*
D03*
X606007Y-411845D02*
D03*
X-355600Y457200D02*
D03*
X1320800Y406400D02*
D03*
X-1016000Y-609600D02*
D03*
D71*
X406400Y304800D02*
D03*
X-212131Y116193D02*
D03*
X1225002Y127053D02*
D03*
X678175Y107807D02*
D03*
X254000Y558800D02*
D03*
D72*
X834252Y-809198D02*
D03*
X750252Y-865825D02*
D03*
X660400Y-916625D02*
D03*
D73*
X406400Y-203200D02*
D03*
%TF.MD5,6d9dc19d1673003a7a28f506d3f80653*%
M02*
